<svg width="158" height="22" viewBox="0 0 158 22" fill="none" xmlns="http://www.w3.org/2000/svg">
<rect width="20" height="20" transform="translate(0 1)" fill="#EE7600"/>
<path d="M15.3952 5.86163L14.5757 12.2865C14.5407 12.5606 14.1362 12.5877 14.0555 12.3235C13.0264 8.95266 11.5974 7.22891 8.51042 5.60899C8.26377 5.47955 8.36885 5.08111 8.64666 5.10153L15.1655 5.58067C15.3085 5.59117 15.4133 5.71945 15.3952 5.86163Z" fill="white"/>
<path d="M10.2811 10.4611L5.588 11.6109C5.30998 11.6791 5.34296 12.1273 5.62577 12.1714C8.47104 12.6158 9.81 13.7344 11.1512 15.719C11.3096 15.9533 11.6988 15.7969 11.639 15.5205L10.585 10.6511C10.5552 10.5135 10.4178 10.4276 10.2811 10.4611Z" fill="white"/>
<path d="M28.156 1.968V0.779999H34.156V1.968H31.84V9H30.496V1.968H28.156ZM40.1484 9V5.448H36.5964V9H35.2644V0.779999H36.5964V4.284H40.1484V0.779999H41.4924V9H40.1484ZM43.3738 9V0.779999H44.7058V9H43.3738ZM46.5964 9V0.779999H51.7804V1.944H47.9284V4.272H51.0604V5.424H47.9284V7.824H51.7804V9H46.5964ZM54.5613 6.072V9H53.2293V0.779999H56.3493C58.2053 0.779999 59.1333 1.652 59.1333 3.396C59.1333 4.564 58.6853 5.356 57.7893 5.772L59.1453 9H57.6813L56.4933 6.072H54.5613ZM57.7653 3.408C57.7653 2.424 57.2933 1.932 56.3493 1.932H54.5613V4.92H56.3733C56.8533 4.92 57.2053 4.784 57.4293 4.512C57.6533 4.232 57.7653 3.864 57.7653 3.408ZM65.5312 9V5.448H61.9792V9H60.6472V0.779999H61.9792V4.284H65.5312V0.779999H66.8752V9H65.5312ZM70.1846 7.26C70.4566 7.732 70.9766 7.968 71.7446 7.968C72.5126 7.968 73.0286 7.736 73.2926 7.272C73.5646 6.808 73.7006 6.032 73.7006 4.944C73.7006 3.848 73.5606 3.052 73.2806 2.556C73.0086 2.06 72.4966 1.812 71.7446 1.812C70.9926 1.812 70.4766 2.06 70.1966 2.556C69.9166 3.052 69.7766 3.844 69.7766 4.932C69.7766 6.012 69.9126 6.788 70.1846 7.26ZM74.3366 8.124C73.8486 8.796 72.9846 9.132 71.7446 9.132C70.5046 9.132 69.6366 8.796 69.1406 8.124C68.6446 7.444 68.3966 6.38 68.3966 4.932C68.3966 3.484 68.6446 2.408 69.1406 1.704C69.6446 1 70.5126 0.648 71.7446 0.648C72.9766 0.648 73.8406 1 74.3366 1.704C74.8326 2.4 75.0806 3.476 75.0806 4.932C75.0806 6.388 74.8326 7.452 74.3366 8.124ZM76.6316 9V0.779999H81.7316V1.944H77.9636V4.716H81.0956V5.88H77.9636V9H76.6316ZM82.9832 9V0.779999H88.0832V1.944H84.3152V4.716H87.4472V5.88H84.3152V9H82.9832ZM94.7314 9.132C93.5314 9.132 92.7154 8.8 92.2834 8.136C91.8594 7.472 91.6474 6.38 91.6474 4.86C91.6474 3.34 91.8634 2.26 92.2954 1.62C92.7274 0.972 93.5394 0.648 94.7314 0.648C95.4434 0.648 96.2274 0.748 97.0834 0.948L97.0354 2.028C96.3154 1.9 95.5954 1.836 94.8754 1.836C94.1554 1.836 93.6674 2.052 93.4114 2.484C93.1554 2.908 93.0274 3.712 93.0274 4.896C93.0274 6.072 93.1514 6.876 93.3994 7.308C93.6474 7.732 94.1314 7.944 94.8514 7.944C95.5714 7.944 96.2994 7.884 97.0354 7.764L97.0714 8.868C96.2474 9.044 95.4674 9.132 94.7314 9.132ZM99.833 7.26C100.105 7.732 100.625 7.968 101.393 7.968C102.161 7.968 102.677 7.736 102.941 7.272C103.213 6.808 103.349 6.032 103.349 4.944C103.349 3.848 103.209 3.052 102.929 2.556C102.657 2.06 102.145 1.812 101.393 1.812C100.641 1.812 100.125 2.06 99.845 2.556C99.565 3.052 99.425 3.844 99.425 4.932C99.425 6.012 99.561 6.788 99.833 7.26ZM103.985 8.124C103.497 8.796 102.633 9.132 101.393 9.132C100.153 9.132 99.285 8.796 98.789 8.124C98.293 7.444 98.045 6.38 98.045 4.932C98.045 3.484 98.293 2.408 98.789 1.704C99.293 1 100.161 0.648 101.393 0.648C102.625 0.648 103.489 1 103.985 1.704C104.481 2.4 104.729 3.476 104.729 4.932C104.729 6.388 104.481 7.452 103.985 8.124ZM106.28 9V0.779999H108.608L111.104 7.824H111.284V0.779999H112.616V9H110.336L107.78 1.944H107.612V9H106.28ZM116.919 1.812C115.903 1.812 115.395 2.168 115.395 2.88C115.395 3.248 115.515 3.512 115.755 3.672C115.995 3.824 116.523 4.016 117.339 4.248C118.163 4.472 118.743 4.744 119.079 5.064C119.415 5.376 119.583 5.872 119.583 6.552C119.583 7.416 119.335 8.064 118.839 8.496C118.351 8.92 117.683 9.132 116.835 9.132C116.155 9.132 115.403 9.052 114.579 8.892L114.147 8.808L114.279 7.74C115.359 7.884 116.183 7.956 116.751 7.956C117.743 7.956 118.239 7.516 118.239 6.636C118.239 6.292 118.127 6.04 117.903 5.88C117.679 5.712 117.175 5.532 116.391 5.34C115.607 5.14 115.023 4.868 114.639 4.524C114.255 4.18 114.063 3.636 114.063 2.892C114.063 2.148 114.303 1.588 114.783 1.212C115.271 0.828 115.943 0.636 116.799 0.636C117.415 0.636 118.143 0.708 118.983 0.852L119.403 0.924L119.295 2.004C118.175 1.876 117.383 1.812 116.919 1.812ZM122.294 6.372C122.294 7.436 122.854 7.968 123.974 7.968C125.094 7.968 125.654 7.436 125.654 6.372V0.779999H126.998V6.348C126.998 7.316 126.742 8.024 126.23 8.472C125.726 8.912 124.97 9.132 123.962 9.132C122.962 9.132 122.21 8.912 121.706 8.472C121.202 8.024 120.95 7.316 120.95 6.348V0.779999H122.294V6.372ZM133.435 9H128.827V0.779999H130.159V7.812H133.435V9ZM132.722 1.968V0.779999H138.722V1.968H136.406V9H135.062V1.968H132.722ZM139.831 9V0.779999H141.163V9H139.831ZM143.053 9V0.779999H145.381L147.877 7.824H148.057V0.779999H149.389V9H147.109L144.553 1.944H144.385V9H143.053ZM154.628 5.856V4.68H156.968V8.856C156.752 8.912 156.312 8.972 155.648 9.036C154.992 9.1 154.516 9.132 154.22 9.132C152.972 9.132 152.112 8.788 151.64 8.1C151.168 7.412 150.932 6.336 150.932 4.872C150.932 3.4 151.172 2.328 151.652 1.656C152.14 0.983999 152.98 0.648 154.172 0.648C154.876 0.648 155.668 0.727999 156.548 0.887999L156.968 0.972L156.92 2.028C155.952 1.9 155.084 1.836 154.316 1.836C153.548 1.836 153.02 2.052 152.732 2.484C152.452 2.916 152.312 3.716 152.312 4.884C152.312 6.052 152.444 6.86 152.708 7.308C152.98 7.748 153.524 7.968 154.34 7.968C154.924 7.968 155.36 7.932 155.648 7.86V5.856H154.628Z" fill="#EE7600"/>
<path d="M28.948 21V12.78H31.264L33.1 19.2L34.936 12.78H37.264V21H35.92V14.256H35.74L33.796 20.664H32.404L30.46 14.256H30.28V21H28.948ZM38.4353 21L40.4633 12.78H43.1153L45.1553 21H43.8113L43.3673 19.236H40.2113L39.7673 21H38.4353ZM41.4953 13.896L40.4753 18.06H43.1033L42.0953 13.896H41.4953ZM47.6589 21H46.3269V12.78H47.6589V16.488L48.8829 16.392L50.5629 12.78H52.0869L50.0589 16.908L52.1709 21H50.6229L48.8829 17.568L47.6589 17.652V21ZM53.323 21V12.78H54.655V21H53.323ZM56.5457 21V12.78H58.8737L61.3697 19.824H61.5497V12.78H62.8817V21H60.6017L58.0457 13.944H57.8777V21H56.5457ZM68.1202 17.856V16.68H70.4602V20.856C70.2442 20.912 69.8042 20.972 69.1402 21.036C68.4842 21.1 68.0082 21.132 67.7122 21.132C66.4642 21.132 65.6042 20.788 65.1322 20.1C64.6602 19.412 64.4242 18.336 64.4242 16.872C64.4242 15.4 64.6642 14.328 65.1442 13.656C65.6322 12.984 66.4722 12.648 67.6642 12.648C68.3682 12.648 69.1602 12.728 70.0402 12.888L70.4602 12.972L70.4122 14.028C69.4442 13.9 68.5762 13.836 67.8082 13.836C67.0402 13.836 66.5122 14.052 66.2242 14.484C65.9442 14.916 65.8042 15.716 65.8042 16.884C65.8042 18.052 65.9362 18.86 66.2002 19.308C66.4722 19.748 67.0162 19.968 67.8322 19.968C68.4162 19.968 68.8522 19.932 69.1402 19.86V17.856H68.1202ZM74.7683 21V12.78H76.1003V21H74.7683ZM80.835 21H77.991V12.78H80.835C82.099 12.78 82.963 13.1 83.427 13.74C83.891 14.38 84.123 15.384 84.123 16.752C84.123 17.448 84.075 18.04 83.979 18.528C83.891 19.008 83.731 19.444 83.499 19.836C83.043 20.612 82.155 21 80.835 21ZM82.743 16.752C82.743 15.76 82.619 15.044 82.371 14.604C82.123 14.164 81.611 13.944 80.835 13.944H79.323V19.824H80.835C81.627 19.824 82.155 19.532 82.419 18.948C82.547 18.652 82.631 18.336 82.671 18C82.719 17.664 82.743 17.248 82.743 16.752ZM85.6785 21V12.78H90.8625V13.944H87.0105V16.272H90.1425V17.424H87.0105V19.824H90.8625V21H85.6785ZM91.6033 21L93.6313 12.78H96.2833L98.3233 21H96.9793L96.5353 19.236H93.3793L92.9353 21H91.6033ZM94.6633 13.896L93.6433 18.06H96.2713L95.2633 13.896H94.6633ZM101.825 13.812C100.809 13.812 100.301 14.168 100.301 14.88C100.301 15.248 100.421 15.512 100.661 15.672C100.901 15.824 101.429 16.016 102.245 16.248C103.069 16.472 103.649 16.744 103.985 17.064C104.321 17.376 104.489 17.872 104.489 18.552C104.489 19.416 104.241 20.064 103.745 20.496C103.257 20.92 102.589 21.132 101.741 21.132C101.061 21.132 100.309 21.052 99.4848 20.892L99.0528 20.808L99.1848 19.74C100.265 19.884 101.089 19.956 101.657 19.956C102.649 19.956 103.145 19.516 103.145 18.636C103.145 18.292 103.033 18.04 102.809 17.88C102.585 17.712 102.081 17.532 101.297 17.34C100.513 17.14 99.9288 16.868 99.5448 16.524C99.1608 16.18 98.9688 15.636 98.9688 14.892C98.9688 14.148 99.2088 13.588 99.6888 13.212C100.177 12.828 100.849 12.636 101.705 12.636C102.321 12.636 103.049 12.708 103.889 12.852L104.309 12.924L104.201 14.004C103.081 13.876 102.289 13.812 101.825 13.812ZM108.565 21V12.78H113.665V13.944H109.897V16.716H113.029V17.88H109.897V21H108.565ZM119.525 21H114.917V12.78H116.249V19.812H119.525V21ZM122.593 21H121.249V17.616L118.669 12.78H120.169L121.909 16.308L123.661 12.78H125.149L122.593 17.616V21Z" fill="#949393"/>
</svg>
