<svg viewBox="0 0 384 384" xmlns="http://www.w3.org/2000/svg" id="Message-Sent-2--Streamline-Brooklyn.svg" height="384" width="384"><desc>Message Sent 2 Streamline Illustration: https://streamlinehq.com</desc><path d="M207.1008 182.92415999999997c-18.10368 -8.620800000000001 -31.872 -15.59424 -52.74816 -25.829759999999997 10.072320000000001 51.582719999999995 11.742719999999998 77.9808 19.762559999999997 88.9824 7.889279999999999 -14.0064 25.9488 -45.8208 32.9856 -63.152640000000005Z" fill="#ee7602" stroke-width="1"></path><path d="M314.23872 159.68256c-11.6448 12.62016 -28.223999999999997 30.336 -40.6944 42.27072 -4.56 4.36416 -8.209919999999999 7.4879999999999995 -18.38976 2.9779199999999997 -18.39168 -8.16192 -32.37888 -14.591999999999999 -44.58048 -20.352 -8.73216 21.41376 -22.679039999999997 44.762879999999996 -34.46208 65.79072 9.76128 3.58464 26.112 -1.3670399999999998 57.0528 -9.863039999999998 64.86336 -17.7792 120.20736 -16.95552 135.25055999999998 -23.8848 -13.643519999999999 -13.82016 -36.2976 -36.856320000000004 -54.17664 -56.939519999999995Z" fill="#ee7602" stroke-width="1"></path><path d="M256.70399999999995 201.41952c8.70528 3.8668799999999997 10.682879999999999 1.07712 14.887679999999998 -2.92032 17.55072 -16.68672 60.3264 -63.26208 86.208 -93.1584 -5.87328 -6.77376 -11.998079999999998 -5.87712 -156.56832 25.31328 -15.5328 3.4752 -50.8608 8.56512 -51.123839999999994 18.13248 4.48704 3.3734399999999996 56.29248 30.303359999999998 106.59648 52.63296Z" fill="#ee7602" stroke-width="1"></path><path d="M368.17727999999994 210.90815999999998c-6.34752 -58.452479999999994 -7.584 -85.3152 -9.792 -100.28735999999999 -14.83968 16.807679999999998 -26.417279999999998 29.78304 -41.53152 46.224 16.61376 18.683519999999998 37.48032 40.02624 51.32352 54.06336Z" fill="#ee7602" stroke-width="1"></path><path d="M160.66752 209.95968c-0.94848 2.40576 1.96608 0.11903999999999999 2.88 -0.192a15.22944 15.22944 0 0 1 6.1152 -1.0540800000000001c1.79328 -3.0547199999999997 -8.62464 0.30336 -8.995199999999999 1.24608Z" fill="#656464" stroke-width="1"></path><path d="M171.30432 209.95007999999999c-2.20416 -0.65664 -11.7408 0.8928 -9.984 2.6592 1.78368 -0.03072 3.32928 -0.9158399999999999 5.917439999999999 -1.31712 1.53024 -0.23807999999999999 6.02304 0.43776 4.06656 -1.34208Z" fill="#656464" stroke-width="1"></path><path d="M168.92352 212.12736c-1.70688 0.24768 -8.51328 1.07136 -6.94848 2.62272a21.75936 21.75936 0 0 0 5.21664 -1.17312c1.03488 -0.24 3.49632 -0.64896 1.73184 -1.4496Z" fill="#656464" stroke-width="1"></path><path d="M167.64672 194.88c-4.224 0.35136 -8.93952 -0.62016 -9.2544 0.3264 -0.26304 1.56672 11.58528 1.22496 9.2544 -0.3264Z" fill="#656464" stroke-width="1"></path><path d="M159.2064 192.6336c-3.7593599999999996 2.43456 12.1632 1.45152 9.984 -0.70272 -1.1155199999999998 -0.84864 -1.34208 1.6512 -9.984 0.70272Z" fill="#656464" stroke-width="1"></path><path d="M159.3024 190.38335999999998c-3.6134399999999998 1.9833599999999998 10.09536 1.7087999999999999 6.956160000000001 -0.1824a43.55904 43.55904 0 0 1 -6.956160000000001 0.1824Z" fill="#656464" stroke-width="1"></path><path d="M168.50688 214.38335999999998c-11.49696 4.2739199999999995 -8.33088 -2.2771199999999996 -13.344 1.92a5.26464 5.26464 0 0 0 -1.49952 -3.8035200000000002c0.93312 -1.28064 10.99584 -4.36032 9.92256 -5.88288 -0.37056 -0.40896 -0.5241600000000001 -0.384 -1.1039999999999999 -0.03072a57.67679999999999 57.67679999999999 0 0 1 -11.54304 5.33184 48.42432 48.42432 0 0 1 -11.06496 1.9948799999999998c-1.08096 1.3785599999999998 1.10208 1.10208 2.08128 1.00224 6.844799999999999 -0.27647999999999995 9.792 -3.0547199999999997 11.053439999999998 -1.3324799999999999 0.8256 1.0368 1.65312 3.16608 0.28991999999999996 3.9052799999999994 -12.58944 7.70688 -33.49056 16.72704 -55.68 22.118399999999998 -1.2019199999999999 0.43584 -2.0428800000000003 -0.384 -3.264 -1.0176 -9.26784 -6.12288 -6.3168 -13.824 -3.9801599999999997 -21.532799999999998a45.2928 45.2928 0 0 0 1.5647999999999997 -15.40416c-0.51456 -1.32672 3.30816 -2.44032 3.91104 -3.10272a70.94015999999999 70.94015999999999 0 0 1 22.32192 -7.933439999999999c-1.728 2.56512 -1.1327999999999998 5.055359999999999 -3.24864 5.74656 -7.44192 1.2940800000000001 -2.95104 6.597119999999999 -6.25536 10.22016a2.82816 2.82816 0 0 1 -1.92 0.70656c-4.058879999999999 0.288 -5.49504 4.26624 -5.34912 7.71648 0.25536000000000003 9.792 16.703999999999997 11.48544 22.402559999999998 8.84928 6.144 -3.01824 -0.86016 -5.60256 6.50112 -9.3312a5.3184 5.3184 0 0 0 1.10208 -2.9587199999999996c2.4787199999999996 0.5952 5.21664 1.8796799999999998 7.47648 0.43968 2.32512 -1.48608 0.9888 -4.7136 1.19232 -6.74112 0.60288 -1.0176 2.6879999999999997 -2.36544 1.45536 -3.11616 -1.0656 -0.74112 -2.39232 0.1632 -2.81664 -1.9046399999999999 5.26464 -2.00064 17.80032 -3.58272 18.18816 -2.07744 1.5897599999999998 3.8784 5.0208 1.728 2.37888 0.97536 -1.2096 -0.46463999999999994 -1.0828799999999998 -1.5743999999999998 -1.65312 -2.53824 -4.96128 -1.05024 -7.5705599999999995 1.9584 -7.04256 -4.35264 0.49152 -2.92608 3.58272 -0.12864 5.149439999999999 -1.3056 2.93952 -2.20416 6.45696 -1.728 9.876479999999999 -1.7664 0.6547200000000001 -0.59904 0.22655999999999998 -1.1212799999999998 -0.8736 -1.18464 -4.020479999999999 -0.23807999999999999 -7.34976 -0.32832 -10.037759999999999 2.2540799999999996 -0.27455999999999997 0.32448 -0.2976 0.15936 -0.9216 0.0576a92.73599999999999 92.73599999999999 0 0 0 -19.7856 -2.304 11.94624 11.94624 0 0 0 -14.49408 1.13472 87.85152 87.85152 0 0 0 -10.031999999999998 2.256c-4.6848 1.3094400000000002 -20.23104 7.799040000000001 -18.72576 10.108799999999999a37.36128 37.36128 0 0 1 -0.384 10.12608c0.059519999999999997 -0.31488 -25.059839999999998 -6.451199999999999 -58.425599999999996 28.703999999999997 -4.4755199999999995 4.7251199999999995 -11.798399999999999 13.61088 -11.80416 13.7376 -5.76 -4.57536 -13.4304 11.395199999999999 -9.408 8.79936 0.8275199999999999 -3.85728 5.64864 -11.23776 9.684479999999999 -7.03872 -3.1910399999999997 0.44736000000000004 -6.29568 4.7731200000000005 -7.898879999999999 7.841279999999999 -1.3555199999999998 2.4326399999999997 12.744959999999999 -3.4118399999999998 12.744959999999999 -3.4118399999999998l67.24224 -21.44064a14.15616 14.15616 0 0 0 4.283519999999999 2.20416c2.5516799999999997 -0.29375999999999997 4.8 -1.31136 7.295999999999999 -1.83744a213.42336 213.42336 0 0 0 54.02688 -23.055359999999997c3.26976 2.55936 14.0832 -0.86592 10.41024 -1.74528Zm-18.9216 -22.99392c-0.768 4.224 1.40544 4.8672 -1.01184 5.28768a84.16511999999999 84.16511999999999 0 0 0 -9.87264 2.48064 9.71712 9.71712 0 0 0 -3.42144 -10.13952c7.32096 0.04223999999999999 14.57664 0.87936 14.305919999999999 2.3712Zm-15.77664 12.8256a10.14336 10.14336 0 0 0 3.90144 -3.13344c0.26496000000000003 1.728 1.14048 1.3247999999999998 2.62656 1.9679999999999997a13.102079999999999 13.102079999999999 0 0 0 -1.6281599999999998 2.15424c-0.35136 0.93312 2.1216 6.61248 -2.62656 6.22464a46.03968 46.03968 0 0 1 -4.63488 -1.00992c0.0192 -2.29056 -0.23231999999999997 -4.56768 2.3615999999999997 -6.203519999999999Zm-110.0928 54.071039999999996a3.84 3.84 0 0 0 0.6835199999999999 1.0752000000000002l-10.5504 3.7555199999999997c1.77984 -3.1487999999999996 6.4204799999999995 -8.46528 9.86688 -4.8307199999999995Zm0.73152 -0.96a5.399039999999999 5.399039999999999 0 0 0 -1.42464 -1.06176c12.49152 -6.72 44.02176 -38.016 61.292159999999996 -31.36896 -23.67936 2.9548799999999997 -23.08608 7.1788799999999995 -51.21984 26.351999999999997 -0.144 -0.20351999999999998 -5.112959999999999 4.04544 -8.64768 6.06912Z" fill="#656464" stroke-width="1"></path><path d="M109.92384 182.25024c0.96 -1.4745599999999999 32.48256 -9.093119999999999 33.0432 -9.00288 2.0966400000000003 -0.16512 2.3193599999999996 0.8275199999999999 0.576 1.536 -1.9295999999999998 0.65088 -21.84576 5.043839999999999 -23.788800000000002 5.55072 -2.7552 0.5875199999999999 -9.64224 2.42304 -9.8304 1.9161599999999999Z" fill="#656464" stroke-width="1"></path><path d="M145.6704 167.96736c-0.32256 0.63744 -1.5494400000000002 0.85632 -2.26368 1.21344 -2.6016 1.0272000000000001 -24.65664 6.79488 -25.854719999999997 6.0172799999999995 -0.5107200000000001 -0.27455999999999997 -0.39743999999999996 -0.84288 0.08447999999999999 -1.17888a15.496319999999999 15.496319999999999 0 0 1 3.5231999999999997 -0.85632c2.05056 -0.4992 23.82912 -5.85216 24.51072 -5.19552Z" fill="#656464" stroke-width="1"></path><path d="M127.38239999999999 252.9504c-0.32256 0.63744 -1.5494400000000002 0.8543999999999999 -2.26368 1.21344 -2.6016 1.02528 -24.654719999999998 6.79488 -25.854719999999997 6.0192 -0.51264 -0.27647999999999995 -0.39552 -0.8448 0.08639999999999999 -1.1807999999999998a15.582719999999998 15.582719999999998 0 0 1 3.52128 -0.85632c2.0448 -0.4992 23.82912 -5.85792 24.51072 -5.19552Z" fill="#656464" stroke-width="1"></path><path d="M145.728 130.35263999999998c0.33024 -5.424 -3.3984 -15.36 -12.13824 -15.59232 -5.4355199999999995 -0.14015999999999998 -8.62464 2.6687999999999996 -11.78496 7.08672a16.5888 16.5888 0 0 0 -7.7356799999999994 -13.806719999999999 14.757119999999999 14.757119999999999 0 0 0 -15.632639999999999 0.31872 13.918079999999998 13.918079999999998 0 0 0 -5.8272 12.43968 14.15424 14.15424 0 0 0 -15.791999999999998 -7.96608c-6.27072 1.3324799999999999 -12.95232 6.93504 -12.84288 17.52Z" fill="#ee7602" stroke-width="1"></path><path d="M374.4 261.18336c0.02688 -4.446719999999999 -0.5529599999999999 -9.847679999999999 -4.4159999999999995 -12.02112 -3.9820799999999994 -2.23296 -8.72256 0.34368 -12.529919999999999 2.8608 -1.24416 -4.3584 -3.7632 -19.34016 -16.260479999999998 -20.06016 -16.0992 -0.9235199999999999 -20.555519999999998 11.783039999999998 -18.775679999999998 16.85952 -3.42528 -5.12256 -11.1648 -6.180479999999999 -16.498559999999998 -3.0912a18.432 18.432 0 0 0 -8.448 15.45216Z" fill="#ee7602" stroke-width="1"></path><path d="M249.12767999999997 282.07487999999995a9.14496 9.14496 0 0 1 17.007360000000002 -4.8 10.227839999999999 10.227839999999999 0 0 1 18.88128 -4.72896 5.45664 5.45664 0 0 1 5.0572799999999996 -4.992c5.4048 -0.47231999999999996 11.20512 6.003839999999999 9.828479999999999 13.5552Z" fill="#ee7602" stroke-width="1"></path></svg>