<svg viewBox="0 0 384 384" xmlns="http://www.w3.org/2000/svg" id="High-Five-3--Streamline-Brooklyn.svg" height="384" width="384"><desc>High Five 3 Streamline Illustration: https://streamlinehq.com</desc><path d="M128.95488 94.848c-0.432 0.432 1.92 2.4671999999999996 2.25216 2.70144a5.256959999999999 5.256959999999999 0 0 0 8.307839999999999 -4.28928 5.61984 5.61984 0 0 0 -4.43328 -5.279999999999999 7.72608 7.72608 0 0 0 -14.2848 -5.54112 13.27488 13.27488 0 0 0 -20.27712 16.38912 10.091520000000001 10.091520000000001 0 0 0 -11.69088 15.61152 11.823360000000001 11.823360000000001 0 0 0 -9.47712 3.10656 14.449919999999999 14.449919999999999 0 0 0 -5.09376 11.560319999999999c0.20928 5.24736 4.9824 11.49312 10.19136 11.184a139.3536 139.3536 0 0 0 17.29536 -4.5504 9.34464 9.34464 0 0 0 4.4159999999999995 -2.59008c3.9667199999999996 -4.896 5.00352 -15.21792 4.992 -20.928 0 -2.5631999999999997 -0.48575999999999997 -5.09952 -0.53376 -7.63008a8.09088 8.09088 0 0 0 6.335999999999999 -3.1487999999999996 9.108479999999998 9.108479999999998 0 0 0 1.75872 -6.07872 7.693439999999999 7.693439999999999 0 0 0 10.24128 -0.51648Z" fill="#ee7602" stroke-width="1"></path><path d="M139.07136 126.73344a33.682559999999995 33.682559999999995 0 0 0 -8.17728 -8.403839999999999c0.24384 0.17664 -2.88 2.88 -3.1968 3.0854399999999997 -0.97536 0.65856 -2.72832 0.97536 -3.4368 1.90272a7.8048 7.8048 0 0 0 -0.6719999999999999 3.6595199999999997q-0.31296 2.82816 -0.45311999999999997 5.6851199999999995a90.89280000000001 90.89280000000001 0 0 0 14.87616 -1.9449599999999998c1.8105599999999997 -0.22272 2.65536 -1.69344 1.0598400000000001 -3.984Z" fill="#ee7602" stroke-width="1"></path><path d="M286.70399999999995 81.98400000000001a19.8816 19.8816 0 0 1 10.39872 15.791999999999998 0.9043199999999999 0.9043199999999999 0 0 0 1.8067199999999999 0 18.30144 18.30144 0 0 0 -11.58336 -16.857599999999998c-0.70656 -0.2784 -1.3459199999999998 0.70272 -0.62208 1.0656Z" fill="#ee7602" stroke-width="1"></path><path d="M303.98208 95.69663999999999a25.99488 25.99488 0 0 0 0.04223999999999999 -4.45824c-0.08832 -1.2 -1.9526399999999997 -1.21536 -1.8796799999999998 0a26.784 26.784 0 0 0 0.66048 4.6195200000000005c0.17087999999999998 0.69888 1.1136 0.47424 1.17696 -0.16128Z" fill="#ee7602" stroke-width="1"></path><path d="M234.3936 158.784c-1.70496 -1.92 -8.5344 -5.88096 -12.07872 -10.98624 -10.87488 -15.66912 -14.240639999999999 -34.31616 -14.28864 -53.39712 0.0576 -0.02688 5.568 -3.93984 9.46176 -4.1184a15.8496 15.8496 0 0 1 7.71456 1.77024 25.3632 25.3632 0 0 0 0.75648 7.104c3.072 17.15136 11.68704 36.370560000000005 28.69248 40.081920000000004a0.6662399999999999 0.6662399999999999 0 0 0 0.35519999999999996 -1.28448 37.9008 37.9008 0 0 1 -19.68576 -18.816c-6.76416 -13.60896 -6.39936 -22.76352 -8.20032 -27.69984 -0.7968 -2.18496 -7.1328 -4.04352 -10.08576 -3.8784 -3.11616 0.17472 -10.01088 3.4944 -10.34688 4.6464 -3.8015999999999996 13.071359999999999 0.03072 28.118399999999998 4.75392 40.72128a77.60448 77.60448 0 0 0 9.22752 17.326079999999997c4.25472 6.06144 10.44672 10.1568 12.979199999999999 10.277759999999999a1.0272000000000001 1.0272000000000001 0 0 0 0.74496 -1.7472Z" fill="#ee7602" stroke-width="1"></path><path d="M255.15071999999998 139.44576c-3.01824 4.663679999999999 0.75264 11.600639999999999 5.861759999999999 12.72768 4.9824 1.1001599999999998 11.535359999999999 -1.19232 13.0848 -6.3936 0.27263999999999994 -0.9158399999999999 -1.0598400000000001 -1.79712 -1.6992 -0.98496a11.15328 11.15328 0 0 1 -10.04352 4.82112c-5.0457600000000005 -0.5875199999999999 -6.08064 -5.5545599999999995 -5.76 -9.792 0.06144 -0.79872 -1.0598400000000001 -0.9715199999999999 -1.44384 -0.37824Z" fill="#ee7602" stroke-width="1"></path><path d="M332.77439999999996 210.28992c-0.7046399999999999 -12.14208 -1.87008 -21.411839999999998 -7.4169599999999996 -33.216 -6.1632 -13.121279999999999 -15.84576 -26.112 -28.4832 -33.62304 -6.49728 -3.86304 -14.2176 -5.978879999999999 -21.64224 -3.7785599999999997 -0.7392 0.21888 -0.63936 1.46112 0.192 1.39584 18.526079999999997 -1.43808 33.024 13.123199999999999 42.21888 27.67296 8.964479999999998 14.1984 11.364479999999999 24.768 12.2112 39.72671999999999a88.28544 88.28544 0 0 0 1.12512 13.60704c0.26304 1.2192 1.9584 0.83136 2.05632 -0.28224a79.04831999999999 79.04831999999999 0 0 0 -0.26112 -11.502719999999998Z" fill="#ee7602" stroke-width="1"></path><path d="M329.23199999999997 221.61216a34.83071999999999 34.83071999999999 0 0 1 -7.05024 1.03296c-1.17696 -0.03648 -2.63616 -0.53184 -3.9206399999999997 -0.53184 -0.45311999999999997 -8.4384 -6.22272 -22.0032 -11.328 -30.199679999999997 -5.585279999999999 -8.97216 -13.08672 -18.02688 -22.50432 -23.13216 -0.6662399999999999 -0.36288 -1.41696 0.53184 -0.83136 1.0656l0.1056 0.1056a0.768 0.768 0 0 0 -0.36096 0.65088c-0.37248 20.91264 6.7488 41.75808 17.19168 59.46432 1.056 1.79136 2.2732799999999997 4.8556799999999996 4.21056 5.786879999999999a1.0694400000000002 1.0694400000000002 0 0 0 1.536 -0.88512c-0.07488 -2.0352 -1.9334399999999998 -3.9436799999999996 -2.95296 -5.65248 -9.7344 -16.32 -18.048 -39.114239999999995 -18.37632 -58.18752 11.73888 11.151359999999999 20.352 19.8432 26.62464 36.3744 1.88736 4.9747200000000005 2.70144 10.12224 4.224 15.168a1.38432 1.38432 0 0 0 0.768 1.23072c4.26816 1.70496 10.559999999999999 2.5248 13.66656 -0.6009599999999999 0.76224 -0.76032 -0.06528 -1.8432 -1.00224 -1.6896Z" fill="#ee7602" stroke-width="1"></path><path d="M303.29472 235.53408000000002c-6.83904 3.4944 -10.84224 9.6 -25.968 10.54464 -10.368 0.6432 -21.18912 -0.17087999999999998 -30.779519999999998 -4.37376 0 -0.06528 -4.38912 -7.17312 -7.104 -21.7824 -6.6144 -35.479679999999995 -3.19872 -46.656 1.37472 -68.6976 0.144 -0.68736 -0.90816 -1.25376 -1.2192 -0.53184a85.8912 85.8912 0 0 0 -5.568 22.656 126.98111999999999 126.98111999999999 0 0 0 2.6284799999999997 46.874880000000005 121.69536 121.69536 0 0 0 7.8048 22.318080000000002c9.204479999999998 6.892799999999999 22.83456 7.0252799999999995 33.8592 6.264959999999999a41.51808 41.51808 0 0 0 14.613119999999999 -3.66528c3.81696 -1.7664 9.6 -4.45824 11.52 -8.46528a0.84288 0.84288 0 0 0 -1.1616 -1.1423999999999999Z" fill="#ee7602" stroke-width="1"></path><path d="M190.64064 10.306560000000001c-0.26304 -1.152 -1.84896 -0.78336 -1.9392 0.26688 -0.49344 5.69088 0.72192 11.815679999999999 1.536 17.448959999999996a171.95327999999998 171.95327999999998 0 0 0 3.52128 17.8752c0.27263999999999994 1.0656 1.82208 0.60672 1.6416 -0.45311999999999997 -4.53888 -26.689919999999997 -2.96832 -27.319679999999998 -4.75968 -35.137919999999994Z" fill="#ee7602" stroke-width="1"></path><path d="M211.21151999999998 42.95616c10.3392 -11.412479999999999 17.13024 -17.26848 20.513279999999998 -21.503999999999998 0.59904 -0.7488 -0.17472 -2.1216 -1.12512 -1.45536 -6.83904 4.8 -15.615359999999997 15.36 -20.688 21.951359999999998 -0.5740799999999999 0.75264 0.6719999999999999 1.70112 1.29984 1.008Z" fill="#ee7602" stroke-width="1"></path><path d="M225.18143999999998 44.12352c6.357119999999999 -2.75136 13.44 -5.08608 19.15392 -9.05856 0.8275199999999999 -0.576 0.35328 -2.06976 -0.7296 -1.728 -6.63936 2.14464 -12.83904 6.30528 -18.87744 9.72288 -0.55104 0.32064 -0.17856 1.33632 0.45311999999999997 1.06368Z" fill="#ee7602" stroke-width="1"></path><path d="M171.456 36.94656a104.67264 104.67264 0 0 0 -10.16448 -12.07872 0.9888 0.9888 0 0 0 -1.536 1.19424 98.59967999999999 98.59967999999999 0 0 0 9.296639999999998 11.81184c3.34848 4.06272 6.798719999999999 7.994879999999999 10.24512 11.998079999999998 0.63936 0.74112 1.9833599999999998 -0.27263999999999994 1.37472 -1.0656 -3.04704 -3.96864 -6.0672 -7.95648 -9.216 -11.859839999999998Z" fill="#ee7602" stroke-width="1"></path><path d="M165.96672 56.33472a49.93152 49.93152 0 0 0 -18.307199999999998 -6.8831999999999995c-0.85632 -0.11327999999999999 -0.9100799999999999 1.17312 -0.192 1.43232a126.31488 126.31488 0 0 1 17.539199999999997 7.104 0.96 0.96 0 0 0 0.96 -1.65312Z" fill="#ee7602" stroke-width="1"></path><path d="M61.593599999999995 365.08223999999996c-2.77056 -0.576 -4.6771199999999995 0.39936 -7.272959999999999 -1.64544 -3.8131199999999996 -3.00288 -8.00256 -13.06752 -10.538879999999999 -16.703999999999997 -0.4224 -0.6048 -1.49568 -0.2592 -1.2576 0.53376 0.94656 3.1622399999999997 6.35328 17.28 12.979199999999999 20.11776a14.951039999999999 14.951039999999999 0 0 0 5.018879999999999 0.37248c1.02336 0.84864 -9.71904 4.06464 -11.712 3.97056a67.42464 67.42464 0 0 1 -7.795199999999999 -1.3439999999999999c-5.3568 -4.34112 -10.12416 -12.288 -13.39968 -18.33984 0.88512 -6.792959999999999 2.17152 -8.15616 0.96 -8.423039999999999a0.64896 0.64896 0 0 0 -0.6758399999999999 0.27647999999999995c-0.88704 1.31712 -2.71296 6.746879999999999 -2.0352 7.764479999999999a33.024 33.024 0 0 0 5.631359999999999 11.890559999999999c2.112 2.8300799999999997 6.034559999999999 9.688320000000001 16.35648 10.794239999999999 5.02464 0.53952 15.037439999999998 -2.82048 16.04736 -3.9206399999999997 1.91232 -2.08704 0.11903999999999999 -4.8441600000000005 -2.30592 -5.34336Z" fill="#ee7602" stroke-width="1"></path><path d="M79.60704 94.17984a35.903999999999996 35.903999999999996 0 0 1 4.608 -10.88064 61.361279999999994 61.361279999999994 0 0 1 7.75296 -8.903039999999999 0.8256 0.8256 0 0 0 -0.99648 -1.2940800000000001c-7.0732800000000005 4.01664 -11.328 12.98688 -12.958079999999999 20.61888 -0.22464 1.0540800000000001 1.3439999999999999 1.4976 1.5936 0.45887999999999995Z" fill="#ee7602" stroke-width="1"></path><path d="M77.37599999999999 77.43936a18.96384 18.96384 0 0 0 -5.12064 11.794559999999999c-0.1152 1.0176 1.46496 0.99264 1.59936 0a27.66144 27.66144 0 0 1 4.69632 -10.89792 0.74688 0.74688 0 0 0 -1.1750399999999999 -0.89664Z" fill="#ee7602" stroke-width="1"></path><path d="M264.04992 121.94879999999999c2.14656 -0.36288 3.44064 -2.8531199999999997 2.04864 -3.19872 -0.6777599999999999 -0.16895999999999997 -0.7891199999999999 0.5107200000000001 -2.63616 1.07136a7.5590399999999995 7.5590399999999995 0 0 1 -2.26944 0.059519999999999997 0.7392 0.7392 0 0 0 -0.7296 0.74112c0.0057599999999999995 0.73344 1.54368 1.7952000000000001 3.58656 1.32672Z" fill="#656464" stroke-width="1"></path><path d="M259.64736 129.47712c-0.4416 0.8947200000000001 -2.1408 6.31488 -2.6879999999999997 8.07744 -0.22272 0.70656 0.87936 1.19424 1.21536 0.53184 0.8275199999999999 -1.6339199999999998 3.30432 -6.6815999999999995 3.61152 -7.603199999999999 5.5104 1.79904 11.16288 -1.8681599999999998 11.74464 -6.07872 0.09984 -0.73536 -0.81792 -1.5955199999999998 -1.43424 -0.83712 -1.9430399999999999 2.39232 -3.79392 4.75968 -7.20768 4.71552a7.7472 7.7472 0 0 1 -7.092479999999999 -5.09952c-2.24064 -5.60256 -0.9235199999999999 -12.26112 1.29984 -17.639039999999998 0.192 -0.48575999999999997 -0.53184 -0.70272 -0.7929599999999999 -0.33599999999999997 -5.01696 7.017599999999999 -5.97696 19.8624 1.3439999999999999 24.2688Z" fill="#656464" stroke-width="1"></path><path d="M261.888 110.39999999999999c0.384 -0.44352 -0.11327999999999999 -1.21728 -0.66048 -0.85824 -1.68576 1.1039999999999999 -4.032 2.9356799999999996 -4.032 5.2108799999999995 0 1.74144 2.4441599999999997 3.59808 3.8688000000000002 2.00832a0.66816 0.66816 0 0 0 0 -0.8947200000000001c-0.8198399999999999 -0.9196799999999999 -2.1657599999999997 -0.73536 -1.31712 -2.304A17.72352 17.72352 0 0 1 261.888 110.39999999999999Z" fill="#656464" stroke-width="1"></path><path d="M265.99296000000004 108.09599999999999a0.74112 0.74112 0 0 0 -0.9369599999999999 0.30912 5.664 5.664 0 0 0 -0.8736 1.4112 0.88704 0.88704 0 0 0 0.5299200000000001 1.13472c1.9564799999999998 0.34559999999999996 2.00064 -2.53824 1.28064 -2.8550400000000002Z" fill="#656464" stroke-width="1"></path><path d="M267.79968 109.83744a0.80448 0.80448 0 0 0 1.44384 0.192 3.6287999999999996 3.6287999999999996 0 0 0 -0.22848 -3.5539199999999997 3.072 3.072 0 0 0 -2.8032 -1.8912 0.624 0.624 0 0 0 -0.16512 1.22112c0.6969599999999999 0.20351999999999998 1.17312 1.3094400000000002 1.35936 1.9392s0.12672 1.4207999999999998 0.39359999999999995 2.0928Z" fill="#656464" stroke-width="1"></path><path d="M272.09472 102.82176c-0.8140799999999999 4.4352 2.54208 11.936639999999999 7.969919999999999 11.59296a30.487679999999997 30.487679999999997 0 0 0 -5.097599999999999 11.364479999999999 28.168319999999998 28.168319999999998 0 0 0 -0.99648 13.1712c0.17472 0.85248 1.3152000000000001 0.53184 1.3996799999999998 -0.192a67.27296 67.27296 0 0 1 2.24448 -12.72384c0.8332799999999999 -2.74944 6.3168 -10.608 8.38464 -17.0016a12.263039999999998 12.263039999999998 0 0 0 -0.192 -7.14432 6.7008 6.7008 0 0 0 -7.5110399999999995 -4.54464c-0.73152 -3.0048 -5.3184 -5.49504 -9.7248 -3.7247999999999997 -1.48608 -2.6054399999999998 -5.15712 -3.18528 -8.07744 -3.072 -3.6959999999999997 0.14784 -5.76 3.32928 -5.85984 6.8351999999999995 -0.23423999999999998 8.03904 11.328 7.257599999999999 17.460479999999997 5.43936Z" fill="#656464" stroke-width="1"></path><path d="M208.75584 87.33312c-4.57344 -0.49152 -4.579199999999999 -7.04448 -4.65216 -10.46016 -0.0768 -3.6864 0.9715199999999999 -7.24416 0.94848 -10.89408a0.9158399999999999 0.9158399999999999 0 0 0 -1.69344 -0.45887999999999995c-2.54208 4.704 -4.224 25.428479999999997 5.60448 23.33568 0.93312 -0.19776 0.61248 -1.43424 -0.20736 -1.52256Z" fill="#656464" stroke-width="1"></path><path d="M207.96287999999998 76.26624c0.768 -4.52928 2.39232 -8.84352 3.1968 -13.31904a0.8543999999999999 0.8543999999999999 0 0 0 -1.55136 -0.65664 26.38464 26.38464 0 0 0 -3.11616 13.78944c-0.00768 0.8256 1.32672 1.04448 1.47072 0.18624Z" fill="#656464" stroke-width="1"></path><path d="M215.3472 61.22496a22.0032 22.0032 0 0 0 -4.8384 14.561279999999998 0.78336 0.78336 0 0 0 1.536 0.20928c0.75072 -2.352 1.2940800000000001 -4.76352 2.0947199999999997 -7.104s1.8432 -4.5465599999999995 2.4671999999999996 -6.92736a0.768 0.768 0 0 0 -1.25952 -0.7392Z" fill="#656464" stroke-width="1"></path><path d="M224.80319999999998 62.92992c0.50304 -0.72768 -0.45887999999999995 -1.4976 -1.14048 -1.14048 -4.91712 2.57856 -7.76256 8.899199999999999 -8.831999999999999 14.05632a0.6777599999999999 0.6777599999999999 0 0 0 1.3056 0.35712c3.07008 -7.90464 6.30336 -9.85152 8.66688 -13.27296Z" fill="#656464" stroke-width="1"></path><path d="M225.6 72.87168c-4.58688 1.50912 -7.9296 7.22304 -8.9664 11.712a0.81024 0.81024 0 0 0 0.61056 0.9696c1.18272 0.26880000000000004 1.01568 -1.48608 4.992 -6.528a44.55936 44.55936 0 0 0 4.199039999999999 -5.07648 0.74688 0.74688 0 0 0 -0.8351999999999999 -1.07712Z" fill="#656464" stroke-width="1"></path><path d="M314.88 238.53312a4.9536 4.9536 0 0 0 2.25216 5.63328c3.91104 2.2540799999999996 9.84192 1.69536 14.06208 0.8409599999999999 4.0492799999999995 -0.8198399999999999 7.45728 -2.16384 7.45728 -6.8351999999999995a20.89152 20.89152 0 0 0 -6.16896 -13.32096 1.23648 1.23648 0 0 0 -1.9334399999999998 1.49184c1.5494400000000002 3.01632 3.8899199999999996 5.42592 4.863359999999999 8.776319999999998 0.39936 1.36896 0.98112 3.8515199999999994 0.09024 5.21472s-3.55008 1.728 -5.03424 2.03136a24.768 24.768 0 0 1 -10.176 0.03648c-5.02848 -1.07328 -2.23296 -5.3759999999999994 -2.36544 -8.807039999999999a0.69888 0.69888 0 0 0 -1.36512 -0.192c-0.27647999999999995 0.66048 -0.576 1.39584 -0.86784 2.16384 -3.072 0.42047999999999996 -1.728 -3.072 -1.23648 -4.3968a22.85952 22.85952 0 0 1 2.18496 -4.4159999999999995c0.41472 -0.64512 -0.47424 -1.2076799999999999 -0.99648 -0.768 -2.50752 2.0947199999999997 -5.184 5.64864 -4.704 9.1488 0.25152 1.84896 2.24064 3.74016 3.93792 3.3984Z" fill="#656464" stroke-width="1"></path><path d="M357.696 339.17375999999996c-0.096 -0.144 -18.88128 -24.16704 -25.919999999999998 -36.76224 -15.75936 -28.24704 -22.8672 -52.416 -27.54048 -62.61504 -0.27071999999999996 -0.59136 -1.1136 -0.14976 -1.00032 0.42047999999999996 2.10048 10.66176 10.298879999999999 30.840959999999995 14.74176 40.79616 8.03328 18 22.80384 45.46944 37.02912 57.599999999999994a16.92864 16.92864 0 0 1 -8.215679999999999 5.35488c-5.6064 -5.46048 -28.590719999999997 -20.413439999999998 -56.21568 -64.11072 -5.172479999999999 -8.183039999999998 -9.6 -16.64448 -14.544 -24.86592 -0.32064 -0.53184 -1.2940800000000001 -0.1824 -1.0656 0.43776 5.232 14.25792 14.34816 28.095359999999996 23.203200000000002 40.72512 -0.28224 0.78336 -1.59936 6.5856 -1.59936 6.5856a146.39808 146.39808 0 0 1 -23.410559999999997 -2.3385599999999998 105.57887999999998 105.57887999999998 0 0 1 -22.525439999999996 -7.01568c-8.52672 -3.5423999999999998 -9.1104 -5.848319999999999 -8.71296 -21.22752a138.41472 138.41472 0 0 1 3.6287999999999996 -26.181119999999996 0.768 0.768 0 0 0 -1.48608 -0.41087999999999997 91.80864 91.80864 0 0 0 -4.91712 28.573439999999998c-0.15744 11.078399999999998 -0.17087999999999998 16.896 7.62432 20.57664 14.19456 6.69888 35.136 11.87328 50.33856 9.86688a99.69408 99.69408 0 0 1 1.62432 23.71584 1.3439999999999999 1.3439999999999999 0 0 0 2.2540799999999996 0.9311999999999999 29.72928 29.72928 0 0 0 7.693439999999999 -19.17888c14.8416 18.38784 31.72992 32.97408 36.72576 35.96352 0 0.03072 -1.1712 13.14048 -8.99904 15.64224a5.3414399999999995 5.3414399999999995 0 0 0 -3.4752 2.3808c-1.77024 3.47904 18.49344 2.78208 18.55872 2.74944 2.0524799999999996 -1.0272000000000001 8.784 -23.784959999999998 6.20544 -27.613439999999997Z" fill="#656464" stroke-width="1"></path><path d="M269.49503999999996 252.05183999999997a133.99488 133.99488 0 0 1 -6.02112 25.18464 1.3996799999999998 1.3996799999999998 0 0 0 0.96 1.68384c8.275199999999998 2.53056 15.98016 6.68544 24.192 9.2544 0.8025599999999999 0.25152 1.13472 -0.83136 0.53184 -1.27296 -5.260800000000001 -3.8591999999999995 -16.95168 -8.448 -22.66944 -10.22016a108.73152 108.73152 0 0 0 4.30464 -24.449279999999998c0.046079999999999996 -0.74112 -1.19808 -0.9311999999999999 -1.29792 -0.18048Z" fill="#656464" stroke-width="1"></path><path d="M190.79999999999998 64.59264a0.85824 0.85824 0 0 0 -1.42272 0.8256c0.864 3.4368 3.3100799999999997 6.382079999999999 2.97984 12.89856a22.90368 22.90368 0 0 1 -4.2624 12.22848c-0.5606399999999999 0.768 0.70656 1.7568 1.32672 1.02336a22.176000000000002 22.176000000000002 0 0 0 5.64096 -12.81984c0.36288 -4.60416 -0.64128 -10.90752 -4.2624 -14.15616Z" fill="#656464" stroke-width="1"></path><path d="M187.77599999999998 75.78624a0.81024 0.81024 0 0 0 1.59744 0c0.23615999999999998 -5.10912 -0.69888 -11.9232 -4.8 -15.578880000000002a0.7948799999999999 0.7948799999999999 0 0 0 -1.3152000000000001 0.768c1.1059199999999998 3.69216 3.8131199999999996 6.70848 4.51776 14.810880000000001Z" fill="#656464" stroke-width="1"></path><path d="M183.31008 74.38656c0.1152 1.0656 1.75296 1.1385599999999998 1.74144 0 -0.05376 -5.13216 -1.44384 -12.91008 -6.282239999999999 -15.743999999999998a0.82944 0.82944 0 0 0 -1.2076799999999999 0.92736c1.30752 3.4886399999999997 4.82304 6.297599999999999 5.74848 14.81664Z" fill="#656464" stroke-width="1"></path><path d="M176.92224000000002 68.1408c2.72064 7.952640000000001 0.97536 10.2912 2.48256 10.28736a0.6969599999999999 0.6969599999999999 0 0 0 0.6969599999999999 -0.6969599999999999 25.727999999999998 25.727999999999998 0 0 0 -0.90048 -10.24512 17.7504 17.7504 0 0 0 -4.640639999999999 -8.5248c-0.65856 -0.53952 -2.064 -0.05376 -1.65696 0.96 1.1481599999999998 2.86272 3.00672 5.26848 4.01856 8.21952Z" fill="#656464" stroke-width="1"></path><path d="M176.28672 87.02976c0.1248 0.6470400000000001 1.1635199999999999 0.49536 1.152 -0.15552 -0.13056 -5.0457600000000005 -1.6550399999999998 -11.30688 -6.3129599999999995 -14.071679999999999a0.9062399999999999 0.9062399999999999 0 0 0 -1.23072 1.23648c1.5897599999999998 2.7993599999999996 5.06112 6.04416 6.39168 12.99072Z" fill="#656464" stroke-width="1"></path><path d="M187.24224 93.15647999999999a23.40288 23.40288 0 0 0 -1.65696 6.9888 75.70751999999999 75.70751999999999 0 0 1 -8.61504 22.128c-5.24544 9.408 -21.84576 24.04032 -21.84576 24.04032s-3.456 -6.60288 -3.9743999999999997 -19.34208A56.60736 56.60736 0 0 0 175.87199999999999 99.31007999999999a30.316799999999997 30.316799999999997 0 0 0 2.88 -9.782399999999999c0.05376 -1.14048 -1.78176 -1.7376 -2.25984 -0.61248 -1.6435199999999999 3.87072 -4.4159999999999995 19.831680000000002 -20.79936 31.898880000000002a58.367999999999995 58.367999999999995 0 0 1 -31.55904 10.96896c0.144 -1.24032 0 -2.496 0.11327999999999999 -3.72864s0.384 -2.6054399999999998 0.5856 -3.91104c10.05696 -2.0544000000000002 11.30688 -19.776 4.01664 -27.216 -0.7180799999999999 -0.73536 -1.75296 0.192 -1.3439999999999999 1.04064 2.4153599999999997 5.11104 4.32 9.91296 3.28896 15.699839999999998a11.2512 11.2512 0 0 1 -3.90144 7.497599999999999 7.017599999999999 7.017599999999999 0 0 1 -8.7264 -1.0656c-0.48191999999999996 -0.45119999999999993 -1.35936 0.144 -0.96 0.73536a7.295999999999999 7.295999999999999 0 0 0 6.192 3.4848 12.56832 12.56832 0 0 0 -0.53376 7.543679999999999 50.471039999999995 50.471039999999995 0 0 1 -6.4204799999999995 -0.20736c-1.06368 -0.11136 -12.58944 0.79872 -17.788800000000002 4.08 -2.6649599999999998 -0.32448 -10.37952 2.77056 -12.531839999999999 3.84a68.71871999999999 68.71871999999999 0 0 0 -17.74656 12.648959999999999c-1.07136 1.06176 -2.8415999999999997 2.4095999999999997 -2.74368 4.1088000000000005a6.08256 6.08256 0 0 0 2.5094399999999997 3.67488c-5.468159999999999 4.83264 -9.58656 12.37248 -8.3712 19.63968 1.45536 8.69952 9.189119999999999 16.24704 16.76736 20.204159999999998a0.9062399999999999 0.9062399999999999 0 0 0 1.09248 -1.41888c-5.55648 -5.8656 -12.890880000000001 -9.778559999999999 -14.918399999999998 -18.253439999999998 -1.8681599999999998 -7.800959999999999 3.0201599999999997 -13.00992 7.0272 -18.816a41.226240000000004 41.226240000000004 0 0 0 6.6335999999999995 5.616 0.88512 0.88512 0 0 0 1.19808 -1.20384c-1.05024 -1.8585599999999998 -9.010559999999998 -9.367679999999998 -8.8224 -10.15104 0.3072 -1.28448 7.58784 -7.153919999999999 9.36192 -8.448a68.06208 68.06208 0 0 1 17.28 -9.10464 38.079359999999994 38.079359999999994 0 0 0 -11.136 14.2944c-3.10272 6.99264 -3.72864 14.71872 -3.9667199999999996 22.285439999999998 -1.3555199999999998 43.007999999999996 -5.6352 39.732479999999995 -8.97216 50.35968 -0.059519999999999997 0.14207999999999998 -3.72864 15.48288 -4.2624 17.71392 -7.8336 26.482559999999996 -12.863999999999999 43.62432 -25.488 71.49119999999999 -6.5472 14.449919999999999 -9.86496 19.88352 -12.81984 26.703359999999996 -0.46271999999999996 1.0656 1.47648 3.888 7.00608 5.4719999999999995 1.59936 0.45887999999999995 6.60096 0 8.0352 -1.80096s8.305919999999999 -10.89408 12.226560000000001 -16.260479999999998c4.8 -6.558719999999999 31.576320000000003 -47.54496 38.3616 -62.432640000000006 3.456 -7.57824 8.13312 -23.7696 9.05664 -24.32256 0.35136 -0.20928 0.8006399999999999 0.192 0.9235199999999999 0.576s-1.8316799999999998 8.73792 -2.7072 12.51072c-0.53568 2.304 -1.2940800000000001 7.459199999999999 -0.53376 8.46144a58.38336 58.38336 0 0 0 5.552639999999999 5.7100800000000005 73.43039999999999 73.43039999999999 0 0 0 -11.904 5.589119999999999c-4.5465599999999995 3.30432 -8.1984 9.792 -11.034239999999999 14.55168 -1.00416 1.68384 -5.74848 10.943999999999999 -6.54144 12.7872a1.536 1.536 0 0 0 0.97536 2.25792c7.319039999999999 -0.39743999999999996 14.83776 -2.84736 21.8016 -4.992a162.82944 162.82944 0 0 0 22.32384 -8.64c6.24768 -2.9856 13.18656 -6.537599999999999 17.40672 -12.21696 5.48736 -7.39008 -11.314559999999998 -53.34144 -17.52384 -54.4416 -0.53376 -0.09408 -8.04288 8.572799999999999 -37.99872 4.00704 -3.456 -0.528 -6.2073599999999995 -2.7763199999999997 -9.5328 -3.7555199999999997 4.8 -6.783359999999999 5.832959999999999 -15.65376 6.792959999999999 -23.62944 2.88 -23.89632 -1.3439999999999999 -41.55647999999999 10.64064 -55.32095999999999a35.9232 35.9232 0 0 1 23.6832 -12.048c0.20159999999999997 0 9.500160000000001 5.08224 33.816959999999995 -5.13792a47.35872 47.35872 0 0 0 0.86208 12.030719999999999c0.44736000000000004 2.19264 2.85696 10.24128 4.1088000000000005 11.604479999999999 -8.4096 7.01184 -13.77792 8.64 -18.888959999999997 11.502719999999998a1.8393599999999999 1.8393599999999999 0 0 0 -0.42624 0.77952c-1.16544 7.0847999999999995 -11.47392 49.78752 -12.35904 54.199679999999994a1.26336 1.26336 0 0 0 2.4288 0.6662399999999999c1.66848 -4.45632 11.4816 -50.03904 11.18784 -54.24384 7.75872 -1.3439999999999999 14.928 -6.77376 20.08704 -12.40896 0.384 -0.42432 -0.40512 -3.0316799999999997 -0.864 -4.128 0.192 0.14784 17.63712 -14.35584 23.358719999999998 -23.808a75.65952 75.65952 0 0 0 6.88896 -14.79168c0.88128 -2.58432 3.7017599999999997 -13.344 2.99328 -15.791999999999998a0.96 0.96 0 0 0 -1.7087999999999999 -0.29952Z" fill="#656464" stroke-width="1"></path><path d="M126.00192 111.69216c1.1327999999999998 0.81792 4.19712 2.12928 4.57728 -0.192 0.16704 -1.01952 -2.1024 -5.47584 -2.83392 -6.576 -0.33791999999999994 -0.50496 -1.31136 -0.192 -1.0656 0.44352 0.52032 1.3439999999999999 1.75296 5.21472 1.728 5.25312s-1.1116799999999998 -0.4704 -1.6876799999999998 -0.64896c-1.07904 -0.33984 -1.536 1.1308799999999999 -0.7180799999999999 1.72032Z" fill="#656464" stroke-width="1"></path><path d="M121.92 107.27423999999999a4.36416 4.36416 0 0 0 0 -2.66304 0.9177599999999999 0.9177599999999999 0 0 0 -1.75296 0 4.36416 4.36416 0 0 0 0 2.66304 1.0176 1.0176 0 0 0 1.75296 0Z" fill="#656464" stroke-width="1"></path><path d="M118.80384 103.5456c1.2864 -2.28288 2.97984 -2.26368 3.8899199999999996 -3.17568a0.7296 0.7296 0 0 0 -0.32064 -1.2096c-2.25216 -0.46271999999999996 -4.06656 2.12352 -4.7616 3.8899199999999996 -0.25728 0.6528 0.85248 1.10208 1.19232 0.49536Z" fill="#656464" stroke-width="1"></path><path d="M118.09536 112.60224c1.25952 4.64448 5.91552 6.80256 8.146560000000001 5.24928a0.89088 0.89088 0 0 0 -0.20736 -1.59936 9.78048 9.78048 0 0 1 -4.0224 -1.12896 22.73664 22.73664 0 0 1 -2.9952 -3.072 0.53568 0.53568 0 0 0 -0.9216 0.55104Z" fill="#656464" stroke-width="1"></path></svg>