<svg viewBox="0 0 512 512" xmlns="http://www.w3.org/2000/svg" id="Lets-Start-3--Streamline-Brooklyn.svg" height="512" width="512"><desc>Lets Start 3 Streamline Illustration: https://streamlinehq.com</desc><path d="M244.00639999999999 165.09696c-0.256 -1.1008 -1.7561600000000002 -0.7424 -1.84064 0.256 -0.256 3.0438400000000003 -0.06144 6.031359999999999 -0.5888 9.0496 -1.41568 8.12288 -6.00064 18.8288 -14.39744 19.07712 -14.376959999999999 0.42240000000000005 -20.43136 -19.53536 -22.21824 -33.856 -0.80384 -6.42048 -0.48896 -8.31232 -1.0495999999999999 -10.24a0.47104 0.47104 0 0 0 -0.8959999999999999 0 15.7568 15.7568 0 0 0 -0.22784 4.67968 73.39264 73.39264 0 0 0 1.7919999999999998 15.29088c2.79808 12.1216 9.36448 25.82016 21.7344 26.23488 9.78688 0.32768 15.18336 -10.14528 17.152 -19.66336a26.475520000000003 26.475520000000003 0 0 0 0.54016 -10.828800000000001Z" fill="#656464" stroke-width="1"></path><path d="M250.29632 163.25376a7.27552 7.27552 0 0 0 -0.43520000000000003 -13.21984 5.33504 5.33504 0 0 0 -7.23712 2.71104 0.6016 0.6016 0 0 0 0.9472 0.7168000000000001c0.9958400000000001 -0.8959999999999999 1.94304 -2.01472 3.39968 -2.048a5.03808 5.03808 0 0 1 2.86464 0.94464c3.5251200000000003 2.4448 3.0950400000000005 8.31232 -2.71104 9.43616a4.73088 4.73088 0 0 1 -3.6044799999999997 -0.2304c-0.48384 -0.2816 -1.14432 -0.52992 -1.58464 0a1.13664 1.13664 0 0 0 -0.17920000000000003 1.3568c1.8124799999999999 2.61888 6.1824 1.52576 8.54016 0.33280000000000004Z" fill="#656464" stroke-width="1"></path><path d="M254.18240000000003 165.32736a7.974400000000001 7.974400000000001 0 0 0 1.3568 2.3244800000000003 18.55744 18.55744 0 0 1 0.15104 18.64192c-3.14624 -1.95072 -9.1776 -4.44416 -12.68224 -3.5839999999999996 -0.5888 0.14336000000000002 -0.4864 0.8985599999999999 0 1.09824 3.28704 1.3568 6.21568 0.5504 12.48 4.8076799999999995a1.0547199999999999 1.0547199999999999 0 0 0 1.43104 -0.384 20.64384 20.64384 0 0 0 1.99424 -18.688c-0.63232 -1.64096 -1.6793600000000002 -4.5209600000000005 -3.3484800000000003 -5.268479999999999a0.9548800000000001 0.9548800000000001 0 0 0 -1.3824 1.05216Z" fill="#656464" stroke-width="1"></path><path d="M259.63008 202.60864a44.23936 44.23936 0 0 0 -18.53952 -11.0208 0.59136 0.59136 0 0 0 -0.4608 1.07264c4.07296 2.8544 13.11744 5.07648 19.30752 13.85984a3.84 3.84 0 0 0 1.81504 1.66144 0.53504 0.53504 0 0 0 0.63744 -0.35840000000000005c0.5222399999999999 -1.83296 -1.63328 -3.96544 -2.7596800000000004 -5.21472Z" fill="#656464" stroke-width="1"></path><path d="M217.18272000000002 176.5248a4.147200000000001 4.147200000000001 0 0 0 1.024 2.73664c1.48992 1.2185599999999999 4.147200000000001 -0.40192 5.31712 -1.4054400000000002a0.93696 0.93696 0 0 0 -0.6656000000000001 -1.58464 8.08704 8.08704 0 0 0 -2.45248 0.7142400000000001c-0.35840000000000005 0.1536 -0.5632 0.33280000000000004 -0.768 0.128s-0.15616 -0.91904 -0.2048 -1.22624a107.264 107.264 0 0 1 -0.7168000000000001 -18.385920000000002 0.62976 0.62976 0 0 0 -1.22624 -0.17920000000000003 48.2048 48.2048 0 0 0 -0.3072 19.202560000000002Z" fill="#656464" stroke-width="1"></path><path d="M222.27200000000002 159.93088a10.54464 10.54464 0 0 1 1.86624 -2.048c0.79872 -0.5273599999999999 1.84576 -0.45311999999999997 2.58304 -0.9728a0.768 0.768 0 0 0 0 -1.32864c-1.66144 -0.92672 -5.39648 1.48224 -5.376 3.98848a0.54528 0.54528 0 0 0 0.92672 0.36095999999999995Z" fill="#656464" stroke-width="1"></path><path d="M207.33696 156.75904a4.7232 4.7232 0 0 1 3.2230399999999997 0.33280000000000004c0.94976 0.45568 1.3209600000000001 1.4464 2.19904 1.9686400000000002 1.23392 0.7347199999999999 1.9737600000000002 -2.19648 -1.5078399999999998 -3.65568a4.22912 4.22912 0 0 0 -4.29568 0.43520000000000003c-0.43776000000000004 0.32 -0.20736000000000002 1.088 0.38144 0.91904Z" fill="#656464" stroke-width="1"></path><path d="M225.31328000000002 165.12a1.96096 1.96096 0 0 0 -2.8160000000000003 -1.4080000000000001 1.66656 1.66656 0 0 0 -0.64 2.22464 1.8944 1.8944 0 0 0 1.22624 1.5104 1.81504 1.81504 0 0 0 2.22976 -2.32704Zm-1.48224 0.0512a1.09568 1.09568 0 0 1 0.1024 0.256 1.09568 1.09568 0 0 0 -0.1024 -0.25344Zm0.128 0.40704 0.0512 -0.0512Z" fill="#656464" stroke-width="1"></path><path d="M210.1248 166.22080000000003a1.95072 1.95072 0 0 0 0.7168000000000001 2.65984 0.9856 0.9856 0 0 0 1.17504 -0.128 1.64608 1.64608 0 0 0 1.1008 -2.35264l0.0256 0.0512a1.6691200000000002 1.6691200000000002 0 0 0 -3.01824 -0.2304Z" fill="#656464" stroke-width="1"></path><path d="M227.61472000000003 184.91392c-0.55296 0.59648 -1.66144 0.1024 -2.3782400000000004 -0.1536 -0.5632 -0.2048 -0.768 0.59136 -0.38144 0.89344 0.78592 0.61952 1.7919999999999998 1.57184 2.8876799999999996 1.3312000000000002 2.2144 -0.48896 4.03712 -7.738880000000001 1.3824 -8.46336a0.63232 0.63232 0 0 0 -0.6912 0.27904c-0.38912 0.512 -0.2816 0.8192 -0.1536 1.4336000000000002a5.9904 5.9904 0 0 1 -0.6656000000000001 4.67968Z" fill="#656464" stroke-width="1"></path><path d="M245.05344000000002 117.81632c-2.3808000000000002 -4.11392 -6.4179200000000005 -10.21696 -11.81184 -9.9968a1.13408 1.13408 0 0 0 -1.0752 1.43104c0.65536 1.7075200000000001 1.3056 3.45088 1.94304 5.16608a37.69344 37.69344 0 0 0 -27.30752 -6.92992c-1.1264 0.15104 -0.9728 1.6102400000000001 -0.2816 2.12224a25.1008 25.1008 0 0 1 4.24448 3.96288 23.728640000000002 23.728640000000002 0 0 0 -12.272639999999999 0.8448000000000001 1.1622400000000002 1.1622400000000002 0 0 0 0 2.22464 11.008 11.008 0 0 1 2.58048 1.30304 20.51328 20.51328 0 0 0 -16.67072 7.4239999999999995c-0.56064 0.6912 -0.3072 2.18112 0.8448000000000001 2.048a54.34624 54.34624 0 0 1 15.56992 0.5376c1.1520000000000001 0.08192 1.18272 -1.52064 0.256 -1.8944a35.48672 35.48672 0 0 0 -12.733440000000002 -1.32864 18.31168 18.31168 0 0 1 16.084480000000003 -3.96288 1.1673600000000002 1.1673600000000002 0 0 0 1.12384 -1.94304 18.29888 18.29888 0 0 0 -3.5276799999999997 -2.9670400000000003 21.468159999999997 21.468159999999997 0 0 1 11.3792 0.8959999999999999 1.18784 1.18784 0 0 0 1.32864 -1.7152 28.367359999999998 28.367359999999998 0 0 0 -4.7820800000000006 -5.521920000000001 35.19488 35.19488 0 0 1 25.855999999999998 9.28256c0.768 0.7142400000000001 2.31936 0.028159999999999998 1.89184 -1.1008 -0.9344 -2.44992 -1.86624 -4.93568 -2.78784 -7.38816a10.9824 10.9824 0 0 1 4.57728 3.4764800000000005 37.74976 37.74976 0 0 1 8.66816 20.14976c0.10752 0.7142400000000001 1.18784 0.512 1.20064 -0.1536a30.83264 30.83264 0 0 0 -4.29824 -15.96672Z" fill="#656464" stroke-width="1"></path><path d="M309.59360000000004 375.8464c-1.58976 3.6224000000000003 -3.4816000000000003 18.79552 -11.046400000000002 29.63456a14.297600000000001 14.297600000000001 0 0 0 -2.35264 3.8886399999999997 0.88576 0.88576 0 0 0 1.28 0.9958400000000001c2.048 -0.98304 4.51584 -5.2224 5.601280000000001 -7.21152a63.28576 63.28576 0 0 0 6.23872 -17.617919999999998 77.34784 77.34784 0 0 0 1.48224 -9.3824c-0.0128 -0.5632 -0.9216 -0.9472 -1.2032 -0.3072Z" fill="#656464" stroke-width="1"></path><path d="M317.67296 383.33696000000003c-1.536 4.5235199999999995 -0.23808 7.4675199999999995 -7.61856 23.2448a6.346240000000001 6.346240000000001 0 0 0 -1.024 2.8876799999999996 0.60672 0.60672 0 0 0 0.8959999999999999 0.512 6.144 6.144 0 0 0 2.07104 -2.53184c4.77184 -7.915520000000001 7.34976 -20.13184 6.92992 -23.90784 -0.128 -0.7398399999999999 -1.01888 -0.89344 -1.2544 -0.2048Z" fill="#656464" stroke-width="1"></path><path d="M323.78624 381.82912c0 15.30368 -4.21376 19.68896 -4.24704 24.576a0.55552 0.55552 0 0 0 1.024 0.2816 43.72224 43.72224 0 0 0 4.19328 -12.4032 28.5696 28.5696 0 0 0 0.35840000000000005 -12.63104 0.6784 0.6784 0 0 0 -1.32864 0.17664000000000002Z" fill="#656464" stroke-width="1"></path><path d="M292.92288 287.3728c-3.1411200000000004 -16.09728 -0.4736 -33.21344 -2.6342399999999997 -50.09152 -3.08736 -24.60672 -14.03136 -47.7312 -17.95072 -73.41312 -0.1024 -0.58624 -1.1008 -0.4608 -1.0495999999999999 0.1536 0.9216 15.36 5.78048 30.069760000000002 10.02496 44.7488 5.4630399999999995 18.79296 7.36 28.77952 7.4239999999999995 46.640640000000005 0.064 20.80256 -0.49664 28.280320000000003 6.033920000000001 48.07168 10.808320000000002 32.90112 16.17408 57.62304 -1.2288 87.91040000000001a1.30048 1.30048 0 0 0 2.2502400000000002 1.30304c25.25184 -44.024319999999996 1.96608 -80.31744 -2.86976 -105.32352000000002Z" fill="#656464" stroke-width="1"></path><path d="M268.14464 243.968a0.512 0.512 0 0 0 -0.7168000000000001 0.7142400000000001 66.10688 66.10688 0 0 1 10.4576 17.36192c4.4288 10.27328 4.57216 15.29088 7.0323199999999995 19.00032a0.6118399999999999 0.6118399999999999 0 0 0 1.1264 -0.3072 32.2048 32.2048 0 0 0 -2.48064 -9.92256c-3.3382400000000003 -9.95072 -7.4879999999999995 -19.968 -15.41888 -26.84672Z" fill="#656464" stroke-width="1"></path><path d="M301.74208 352.04096a0.68864 0.68864 0 0 0 -0.9958400000000001 -0.4096c-1.1033600000000001 0.63488 -1.024 2.2067200000000002 -3.70688 2.99008a12.98944 12.98944 0 0 1 -6.31552 -0.56064 0.59392 0.59392 0 0 0 -0.4608 1.07264c5.92896 3.79904 12.35968 -0.31744 11.47904 -3.09248Z" fill="#656464" stroke-width="1"></path><path d="M288.256 352.7296c0.5376 0.4608 1.536 -0.1536 1.07264 -0.81664 -6.241280000000001 -8.767999999999999 -23.77984 -26.304000000000002 -42.34496 -59.45088 -9.06752 -16.15616 -17.344 -34.10176 -13.908479999999999 -52.41856 2.28608 -12.288 6.9862400000000004 -16.481279999999998 15.674880000000002 -20.63616a80.128 80.128 0 0 1 30.208000000000002 -7.23712 0.6784 0.6784 0 0 0 0 -1.35424c-11.06944 -1.43616 -26.408960000000004 3.0848000000000004 -35.90144 8.770560000000001a22.58176 22.58176 0 0 0 -10.71104 13.040640000000002c-6.60736 18.094079999999998 -0.13312 37.509119999999996 8.770560000000001 54.464 15.11424 29.10464 37.73696 57.65888 47.13984000000001 65.6384Z" fill="#656464" stroke-width="1"></path><path d="M290.80064 388.14464c-3.4816000000000003 -0.67584 -12.74368 1.3952000000000002 -34.1632 0.5376 -0.69632 -0.03072 -9.53344 -0.37888 -11.3024 -0.6912 -2.09664 -0.35840000000000005 -2.22464 -1.9686400000000002 -1.89184 -3.78368 1.55392 -8.611839999999999 15.83872 -18.2528 23.67744 -22.0672 9.018880000000001 -4.352 14.607360000000002 -4.776960000000001 20.32896 -6.2899199999999995a0.69376 0.69376 0 0 0 -0.17920000000000003 -1.3568c-18.87744 -0.56064 -50.613760000000006 21.527040000000003 -45.898239999999994 33.318400000000004 1.28 3.1718400000000004 5.9827200000000005 2.71104 8.71936 2.86464a270.66368 270.66368 0 0 0 33.958400000000005 -0.1024 23.22688 23.22688 0 0 0 6.776319999999999 -0.89344c0.6118399999999999 -0.256 0.81664 -1.3568 -0.0256 -1.536Z" fill="#656464" stroke-width="1"></path><path d="M265.728 342.2464c3.95008 1.20576 7.31392 7.541760000000001 9.10336 11.1744 0.2816 0.5888 1.32864 0.17920000000000003 1.07264 -0.4608 -1.57184 -4.096 -5.05856 -10.411520000000001 -9.10336 -12.17024 -1.5078399999999998 -0.64 -4.29568 -1.1008 -4.2188799999999995 1.30304a10.652159999999999 10.652159999999999 0 0 0 1.0752 3.98848c-7.756799999999999 -4.68736 -10.87232 1.15968 -6.31552 5.21728a30.791680000000003 30.791680000000003 0 0 0 7.167999999999999 4.98688 0.54272 0.54272 0 0 0 0.6630400000000001 -0.8448000000000001c-3.1001600000000002 -3.5968 -7.48544 -5.12 -8.002559999999999 -7.5955200000000005 -0.512 -2.60608 3.0438400000000003 -1.4054400000000002 4.24448 -0.8678400000000001a24.32 24.32 0 0 1 4.44928 2.91584c0.7936 0.58624 1.68704 -0.5376 1.28 -1.28a22.11072 22.11072 0 0 1 -2.45248 -5.376c0 -0.0256 -0.30976 -1.1776 -0.30976 -1.2032 0.10752 -0.14592000000000002 1.18016 0.16128 1.34656 0.21248Z" fill="#656464" stroke-width="1"></path><path d="M499.09504000000004 299.61984a1.25952 1.25952 0 0 0 -0.9216 -1.20064 27.476480000000002 27.476480000000002 0 0 0 -21.299200000000003 4.39808 1.31072 1.31072 0 0 0 -0.5632 0.9984000000000001 4.94336 4.94336 0 0 0 -2.42944 -1.4848c-0.63744 -0.17920000000000003 -0.91904 0.6656000000000001 -0.43264 1.024a6.19264 6.19264 0 0 1 1.32864 1.3798400000000002c-1.9737600000000002 -0.6630400000000001 -26.624000000000002 -0.32 -41.679359999999996 1.48224a146.56512 146.56512 0 0 0 -45.77024 12.300799999999999 58.6496 58.6496 0 0 0 5.54752 -11.1744 59.29216 59.29216 0 0 0 3.01824 -11.6096c0.30463999999999997 0.128 0.58624 0.2304 0.89344 0.35840000000000005a1.4976 1.4976 0 0 0 1.84064 -1.0495999999999999c9.53856 -31.0656 17.664 -64.20479999999999 12.1984 -96.8576a26.34496 26.34496 0 0 0 -8.565760000000001 -16.85248c1.5129599999999999 -1.51552 -0.3712 -3.072 -1.58464 -4.65408 -8.704 -11.34848 -22.97088 -21.95712 -35.64544 -28.71552 -26.327040000000004 -14.03904 -83.77856 -23.68512 -110.6944 -11.60704 -0.64 0.2816 -0.17920000000000003 1.3798400000000002 0.4864 1.14944 15.672320000000001 -5.25568 36.84608 -5.0944 53.05856 -3.19488 15.006720000000001 1.7382400000000002 36.68992 6.6432 50.11712000000001 12.733440000000002 15.546880000000002 7.047680000000001 31.8592 18.76992 42.19136 33.024 -3.7862400000000003 2.52416 -8.32512 3.7811200000000005 -19.56096 9.664 -20.961280000000002 10.926079999999999 -35.04384 17.20832 -55.257600000000004 21.9648a1.6307200000000002 1.6307200000000002 0 0 0 -0.17920000000000003 0.0512 1.41568 1.41568 0 0 0 -1.91744 0.8959999999999999c-2.37568 15.749120000000001 7.0758399999999995 26.9056 6.69952 54.796800000000005 -0.20224 10.62144 -1.33888 11.49952 -0.6656000000000001 13.96224a1.46176 1.46176 0 0 0 2.12224 0.8678400000000001c0.9216 -0.56064 1.81504 -1.12384 2.68544 -1.7126400000000002 3.2025599999999996 -16.43264 9.728 -40.64768 17.05472 -55.4624 0.33280000000000004 -0.6630400000000001 1.4054400000000002 -0.20224 1.2032 0.512 -3.6044799999999997 11.776 -11.44064 31.078400000000002 -16.54528 59.136a1.6256000000000002 1.6256000000000002 0 0 0 0.7424 0.512 12.8 12.8 0 0 0 3.1744 0.34304 140.82816 140.82816 0 0 0 -5.8086400000000005 21.39136c-2.46528 13.240319999999999 -3.36384 27.105279999999997 4.14208 38.305279999999996 7.326720000000001 10.99008 20.94848 13.944320000000001 34.18624 14.24128 18.86464 0.46592 42.24 -8.5888 59.391999999999996 -16.67072 10.652159999999999 -5.02784 30.06464 -15.57248 38.79168 -23.3728 0.81664 -0.7142400000000001 -0.2304 -2.0198400000000003 -1.1520000000000001 -1.48224 -7.80032 4.52864 -30.487040000000004 22.41536 -69.12 34.519040000000004 -14.28224 4.48768 -26.539520000000003 6.272 -41.246719999999996 3.1206400000000003a30.6816 30.6816 0 0 1 -16.128 -8.002559999999999c-14.63552 -15.191040000000001 -7.167999999999999 -41.966080000000005 -1.4745599999999999 -62.059520000000006a150.97856 150.97856 0 0 1 53.02272 9.6896 96.83200000000001 96.83200000000001 0 0 1 -3.4252800000000003 11.148800000000001 90.06335999999999 90.06335999999999 0 0 1 -5.39648 11.072000000000001 1.24672 1.24672 0 0 0 0.768 1.6128 88.20224 88.20224 0 0 0 -9.7664 5.598719999999999 0.53248 0.53248 0 0 0 0.53504 0.9216 153.49248 153.49248 0 0 1 35.13344 -13.450239999999999c28.02944 -6.81472 56.926719999999996 -5.0457600000000005 62.28992 -5.47328a0.8959999999999999 0.8959999999999999 0 0 0 0.8704000000000001 -0.68864 13.056 13.056 0 0 1 -4.42368 15.239680000000002 0.64 0.64 0 0 0 -1.1520000000000001 0.1536c-3.63776 8.77568 -3.87328 21.34784 -2.14784 30.8608 -7.4239999999999995 1.9968000000000001 -16.161279999999998 5.83168 -17.69472 14.192639999999999a1.14944 1.14944 0 0 0 0.512 1.25184 18.982400000000002 18.982400000000002 0 0 0 9.48736 1.2032c3.91168 -0.2816 27.614720000000002 -2.2502400000000002 35.540479999999995 -2.91584a1.07008 1.07008 0 0 0 1.0495999999999999 -1.04704 570.14784 570.14784 0 0 0 2.56512 -65.33888Zm-98.52416 -119.9744 -0.04864 0.0512c0.0256 -0.0512 0.04864 -0.0512 0.04864 -0.0512Zm-31.2448 37.48608c-1.60512 1.15456 -6.84544 0.98304 -15.009280000000002 6.80192 -0.5376 0.384 -1.1264 -0.4608 -0.6912 -0.8959999999999999a27.76576 27.76576 0 0 1 11.4048 -6.8531200000000005 7.656960000000001 7.656960000000001 0 0 1 4.11648 -0.6118399999999999 0.8678400000000001 0.8678400000000001 0 0 1 0.17920000000000003 1.55904Zm125.184 146.67008c-38.07488 2.9491199999999997 -38.50752 3.49952 -42.21696 2.12224 1.9686400000000002 -7.23456 10.329600000000001 -10.304 16.92672 -11.93984a1.1136 1.1136 0 0 0 0.768 -1.3568c-2.3040000000000003 -11.558399999999999 -1.24672 -18.944000000000003 0.7168000000000001 -29.27616a1.024 1.024 0 0 0 1.09824 -0.0512 14.65856 14.65856 0 0 0 5.498880000000001 -17.97632 1.0547199999999999 1.0547199999999999 0 0 0 0.8678400000000001 -0.2304 25.6 25.6 0 0 1 18.41152 -4.39808 481.43616000000003 481.43616000000003 0 0 1 -2.0633600000000003 63.10656Z" fill="#656464" stroke-width="1"></path><path d="M450.86976000000004 348.56192000000004c0.0512 2.53184 2.91328 3.072 4.7820800000000006 2.09664 1.35424 -0.68864 2.52928 -1.7919999999999998 3.84 -2.56a12.925440000000002 12.925440000000002 0 0 0 3.65568 -2.50368 0.54784 0.54784 0 0 0 -0.384 -0.9216c-4.14464 -0.256 -8.12544 5.39904 -9.5104 4.27008 -0.96768 -0.78848 2.1504 -6.993920000000001 8.9216 -8.41216a1.024 1.024 0 0 0 -0.27904 -1.99424c-1.5104 0.0768 -3.0438400000000003 0.128 -4.55168 0.2048a4.44672 4.44672 0 0 1 -2.09664 -0.1024c-0.9216 -0.512 0.2816 -1.1008 0.8422400000000001 -1.4080000000000001a10.03264 10.03264 0 0 1 7.87712 -0.35584000000000005 0.67328 0.67328 0 0 0 0.512 -1.2288 9.615359999999999 9.615359999999999 0 0 0 -5.95712 -1.09824 8.4224 8.4224 0 0 0 -5.2403200000000005 2.32704 2.3296 2.3296 0 0 0 1.20064 3.68128c2.20928 0.768 2.68544 -0.6988800000000001 0.2048 1.536a10.163200000000002 10.163200000000002 0 0 0 -3.8169600000000004 6.46912Z" fill="#656464" stroke-width="1"></path><path d="M333.50144 187.98080000000002a32.9088 32.9088 0 0 1 -6.2643200000000006 3.55584c-0.768 0.38144 -0.43520000000000003 1.7919999999999998 0.4608 1.68704 7.4444799999999995 -0.80896 15.846400000000001 -9.96864 15.342080000000001 -20.45696 -0.4608 -10.304 -8.00512 -18.869760000000003 -17.057280000000002 -23.011840000000003 -18.33728 -8.409600000000001 -48.401920000000004 -5.870080000000001 -59.576319999999996 12.86144a22.405120000000004 22.405120000000004 0 0 0 -1.7919999999999998 17.541120000000003c1.17504 4.6080000000000005 3.70688 9.945599999999999 8.66816 11.3024a0.5760000000000001 0.5760000000000001 0 0 0 0.43264 -1.0495999999999999 15.941120000000002 15.941120000000002 0 0 1 -7.05792 -9.9968 21.22752 21.22752 0 0 1 0.5632 -15.162880000000001c8.54784 -17.2928 35.15392 -20.93568 53.46816 -15.01184 21.58336 7.0016 25.072640000000003 28.108800000000002 12.8128 37.74208Z" fill="#656464" stroke-width="1"></path><path d="M329.87136 356.76928c-4.55936 -16.75264 -5.632000000000001 -24.15104 -4.2188799999999995 -44.10624 1.07264 -15.42144 3.09248 -30.83776 1.9686400000000002 -46.30784 -2.14272 -29.381120000000003 -13.824000000000002 -60.12928 0.2304 -90.00704 0.33280000000000004 -0.6912 -0.64 -1.3056 -1.0495999999999999 -0.6144 -14.99136 24.55296 -5.00224 59.69664 -2.32704 83.69152 4.0576 36.27264 -6.7891200000000005 58.50112 0.9984000000000001 90.69568 4.6080000000000005 19.008 9.344 28.968960000000003 6.912000000000001 46.89664 -0.2048 1.45664 1.86624 2.14784 2.27328 0.6144 3.35104 -12.64384 -1.4080000000000001 -28.34176 -4.7872 -40.86272Z" fill="#656464" stroke-width="1"></path><path d="M222.55360000000002 199.8464a188.88704 188.88704 0 0 1 0.79104 35.82464c-0.96768 11.88864 -4.24448 23.498240000000003 -4.67968 35.41248 -0.94464 25.98656 9.09312 50.58048 5.78048 71.31648 -1.69216 10.5856 -7.08352 20.48 -16.72448 25.72288 -1.45664 0.7936 -0.17664000000000002 2.8416 1.28 2.17344 8.57088 -3.92448 14.13376 -12.707840000000001 16.64 -21.504 5.96224 -20.8896 -3.93216 -46.059520000000006 -4.67968 -71.77472 -0.42752 -14.72512 2.53184 -22.75584 4.0652800000000004 -36.23424a132.96128000000002 132.96128000000002 0 0 0 -1.07264 -41.16736 0.7219199999999999 0.7219199999999999 0 0 0 -1.4003200000000002 0.2304Z" fill="#656464" stroke-width="1"></path><path d="M247.99488000000002 306.14016c-2.56 15.616 -10.46016 26.5216 -7.49312 47.104 0.54528 3.76576 2.14784 11.776 4.5004800000000005 14.906880000000001a0.8448000000000001 0.8448000000000001 0 0 0 1.536 -0.63744 66.1248 66.1248 0 0 0 -2.19904 -7.6211199999999995c-6.74048 -25.154560000000004 4.6080000000000005 -37.28128 4.98432 -53.54496 0.02048 -0.768 -1.2032 -0.9728 -1.32864 -0.20736000000000002Z" fill="#656464" stroke-width="1"></path><path d="M237.63968 357.376c-1.4489599999999998 9.431040000000001 -2.7417599999999998 17.97376 -9.12896 25.774079999999998 -2.94144 3.5839999999999996 -4.48768 3.99104 -5.83168 6.06208a0.7372799999999999 0.7372799999999999 0 0 0 0.8192 1.07264 14.15936 14.15936 0 0 0 6.673920000000001 -5.445119999999999 41.23904 41.23904 0 0 0 8.71936 -27.28448c0.0512 -0.6912 -1.13408 -0.9472 -1.25184 -0.17920000000000003Z" fill="#656464" stroke-width="1"></path><path d="M230.63296 366.08a36.67968 36.67968 0 0 1 -10.8928 15.39328c-1.7126400000000002 1.4080000000000001 -3.89376 2.44992 -5.498880000000001 3.98848a0.6988800000000001 0.6988800000000001 0 0 0 0.4864 1.1776 11.47136 11.47136 0 0 0 5.9827200000000005 -3.24864 32.645120000000006 32.645120000000006 0 0 0 11.0976 -16.97792c0.256 -0.82176 -0.8959999999999999 -1.0752 -1.17504 -0.33280000000000004Z" fill="#656464" stroke-width="1"></path><path d="M223.26784 364.0064c-7.11936 12.651520000000001 -12.74112 12.48 -13.73184 15.342080000000001a0.512 0.512 0 0 0 0.35840000000000005 0.6144c1.68704 0.33536000000000005 3.30496 -1.11616 4.55168 -2.07104a29.831680000000002 29.831680000000002 0 0 0 10.05056 -13.37344 0.6784 0.6784 0 0 0 -1.2288 -0.512Z" fill="#656464" stroke-width="1"></path><path d="M251.95776000000004 142.72256c-0.8345600000000001 -6.70976 -9.87136 -7.344640000000001 -16.51712 -8.30976a165.48352 165.48352 0 0 0 -23.1424 -2.22464 0.512 0.512 0 0 0 -0.43520000000000003 0.2048 24.46592 24.46592 0 0 0 -15.18848 1.6102400000000001c-3.5276799999999997 1.64864 -3.4355200000000004 4.49792 -1.7126400000000002 5.75232a52.536319999999996 52.536319999999996 0 0 1 16.44288 -1.84064 10.734079999999999 10.734079999999999 0 0 1 5.9827200000000005 1.14944c0.3072 0.256 0.1024 0.7193600000000001 -0.2304 0.8448000000000001 -2.048 0.768 -3.84 -1.024 -13.50144 -0.0512a58.17856 58.17856 0 0 0 -8.770560000000001 1.68704 4.75136 4.75136 0 0 0 1.2288 4.2188799999999995c5.209600000000001 5.486079999999999 13.94176 -2.01472 45.13024000000001 2.89024a16.384 16.384 0 0 0 5.47328 0.17920000000000003 5.79328 5.79328 0 0 0 5.2403200000000005 -6.110720000000001Z" fill="#ee7602" stroke-width="1"></path><path d="M162.00191999999998 273.82016C157.696 255.21408 157.83936 246.78400000000002 159.21408 226.61888c1.26464 -18.52672 2.13504 -29.71136 -2.35264 -47.920640000000006 -4.30848 -17.48992 -10.603520000000001 -34.11968 -5.8547199999999995 -52.480000000000004a0.84992 0.84992 0 0 0 -1.63584 -0.45824c-5.58592 14.63552 -1.14944 30.94528 2.71104 45.437439999999995 4.75904 17.86624 6.25152 25.3568 4.90752 47.40608 -1.0444799999999999 17.152 -2.7187200000000002 30.256640000000004 0.512 47.36 3.9936000000000003 21.143040000000003 18.0864 54.945280000000004 -9.472000000000001 80.31488 -1.28 1.1776 0.60672 3.0361599999999997 1.8944 1.89184a52.6592 52.6592 0 0 0 16.896 -32.1152c2.0633600000000003 -14.36672 -1.5872 -28.27008 -4.81792 -42.234880000000004Z" fill="#656464" stroke-width="1"></path><path d="M192.83968000000002 154.11200000000002c-8.7168 17.57696 -3.8886399999999997 38.92736 -2.22464 56.81664 3.27936 35.26912 -10.10432 65.03936 -4.628480000000001 97.83040000000001 1.7228800000000002 10.31424 5.03552 21.55776 3.0950400000000005 32.42496a50.9824 50.9824 0 0 1 -3.072 9.587200000000001c-0.48128 1.2288 1.30304 1.7126400000000002 1.9686400000000002 0.8192 3.4662400000000004 -4.63872 4.3008 -11.264000000000001 4.37248 -16.896 0.23552 -18.4064 -7.521280000000001 -25.408 -4.24448 -58.48064 1.92 -19.37408 6.55616 -38.528000000000006 5.6780800000000005 -58.50368 -0.88832 -20.15744 -7.4879999999999995 -41.812479999999994 0.2816 -63.109120000000004 0.25344 -0.7065600000000001 -0.88576 -1.18784 -1.22624 -0.48896Z" fill="#656464" stroke-width="1"></path><path d="M148.48 332.1984c1.35424 0.41472000000000003 2.69312 -0.7833600000000001 3.73504 -1.536a30.65344 30.65344 0 0 0 9.32096 -10.4576c0.33024000000000003 -0.6144 -0.512 -1.3849600000000002 -1.024 -0.7936 -9.592319999999999 11.20768 -11.92704 9.28512 -12.5568 11.865599999999999a0.768 0.768 0 0 0 0.5247999999999999 0.9216Z" fill="#656464" stroke-width="1"></path><path d="M169.64864000000003 328.59136c-2.78528 6.99648 -4.68736 14.965760000000001 -10.28096 21.42976 -2.56 2.9568000000000003 -3.9270400000000003 3.3587200000000004 -4.756480000000001 4.9587200000000005 -0.27648 0.54016 0.0512 1.4028800000000001 0.768 1.3312000000000002a10.24 10.24 0 0 0 5.80352 -4.16768c5.5552 -6.305280000000001 8.355839999999999 -14.94272 9.984 -23.1424a0.7808 0.7808 0 0 0 -1.5180799999999999 -0.4096Z" fill="#656464" stroke-width="1"></path><path d="M178.2656 335.39328a37.12 37.12 0 0 1 -7.64672 15.521279999999999c-2.44224 2.7904000000000004 -3.24864 3.21536 -3.39968 4.2188799999999995a0.768 0.768 0 0 0 0.7142400000000001 0.9472c1.7408000000000001 0.07936 3.6096 -2.3040000000000003 4.628480000000001 -3.50464a28.0704 28.0704 0 0 0 7.05792 -17.00352 0.6912 0.6912 0 0 0 -1.35424 -0.17920000000000003Z" fill="#656464" stroke-width="1"></path><path d="M141.13792 286.42560000000003a196.01152 196.01152 0 0 0 14.11328 15.59808c0.68864 0.59136 1.93536 -0.17152 1.3312000000000002 -1.024 -5.75232 -8.06912 -26.368000000000002 -28.57216 -41.349120000000006 -57.73824 -10.94656 -21.33504 -21.504 -50.6624 -4.98432 -68.01664 7.02208 -7.37536 17.131520000000002 -10.55232 27.23072 -11.328 3.65824 -0.27904 7.31648 -0.15872 10.9696 -0.43520000000000003 0.9472 -0.07168000000000001 1.30304 -1.57952 0.2304 -1.7638399999999999 -11.046400000000002 -1.8816 -26.16064 0.4736 -36.05248 7.851520000000001s-14.059520000000001 19.38176 -13.568 31.424000000000003c0.512 12.91264 5.376 25.6 10.752 37.20448a224.13824 224.13824 0 0 0 31.32672 48.22784Z" fill="#656464" stroke-width="1"></path><path d="M136.76544 199.07840000000002c-0.5376 -0.512 -1.536 0.1536 -1.0752 0.8192a127.94879999999999 127.94879999999999 0 0 1 9.92256 16.03328c4.93568 10.03008 4.50816 13.47072 6.87616 17.48992a0.60672 0.60672 0 0 0 1.1264 -0.3072 22.6816 22.6816 0 0 0 -2.048 -9.41056 66.47808 66.47808 0 0 0 -14.80192 -24.62464Z" fill="#656464" stroke-width="1"></path><path d="M163.20512000000002 300.77184a0.6784 0.6784 0 0 0 -1.1264 -0.2816c-0.79616 0.67584 -0.8959999999999999 1.7740799999999999 -2.94144 2.22464 -2.73408 0.60416 -5.6576 -1.88672 -6.033920000000001 -0.384a18.360319999999998 18.360319999999998 0 0 0 -7.05792 0.9728 55.88736 55.88736 0 0 0 -31.654400000000003 22.528000000000002c-1.25184 1.86624 -2.5088 4.52608 -1.0752 6.656000000000001s5.0892800000000005 1.92 7.33952 2.12224c5.363200000000001 0.47616 17.62048 0.7424 22.8608 -0.6144a1.09824 1.09824 0 0 0 -0.2816 -2.14784c-5.09184 -0.07424 -6.82496 1.12128 -17.92 0.64a52.968959999999996 52.968959999999996 0 0 1 -8.79616 -0.768c-3.0438400000000003 -0.6656000000000001 -0.3072 -4.32128 0.68864 -5.72928a53.888000000000005 53.888000000000005 0 0 1 29.073919999999998 -20.326400000000003c1.36192 -0.384 7.167999999999999 -1.43616 7.72352 -2.27584 5.5296 2.99008 9.89184 -0.20992000000000002 9.20064 -2.61632Z" fill="#656464" stroke-width="1"></path><path d="M143.00415999999998 301.41184000000004a18.30912 18.30912 0 0 0 -6.21312 -9.58976 7.447039999999999 7.447039999999999 0 0 0 -2.99264 -1.84064c-2.60864 -0.512 -2.86464 3.37408 -2.48064 5.061120000000001 0.03328 0.16128 0.09472 0.13824 -0.256 0.0256a2.9568000000000003 2.9568000000000003 0 0 0 -3.96288 1.8175999999999999c-0.384 1.7638399999999999 1.4054400000000002 3.4764800000000005 2.6342399999999997 4.47488a9.92768 9.92768 0 0 0 5.3939200000000005 2.37568c1.1008 0.07936 1.2032 -1.5078399999999998 0.256 -1.81504a15.198720000000002 15.198720000000002 0 0 1 -3.4252800000000003 -1.4054400000000002c-3.62752 -2.3168 -3.36128 -4.12416 -1.4336000000000002 -3.5020800000000003a9.33376 9.33376 0 0 1 1.7664 1.024 31.06816 31.06816 0 0 0 3.9372800000000003 2.58304 1.024 1.024 0 0 0 1.024 -1.7638399999999999c-1.67168 -1.1033600000000001 -3.008 -1.68704 -3.73248 -3.6326400000000003 -0.17920000000000003 -0.48384 -0.6912 -2.50368 -0.1024 -2.9388799999999997s1.84064 0.768 2.32704 1.17504a19.3536 19.3536 0 0 1 5.888 8.30976 0.7142400000000001 0.7142400000000001 0 0 0 1.37216 -0.35840000000000005Z" fill="#656464" stroke-width="1"></path><path d="M81.37984 305.16992c7.95648 -3.9270400000000003 13.62432 -12.2752 16.896 -20.27776 10.731520000000002 -26.20928 -2.5856 -55.44704 -3.98848 -82.05568 -1.0547199999999999 -19.98848 6.58432 -38.676480000000005 3.6044799999999997 -54.5664 -0.15616 -0.8422400000000001 -1.536 -0.64 -1.48224 0.2048 1.43616 25.69984 -7.4496 35.151360000000004 -3.1974400000000003 65.408 3.3280000000000003 23.741439999999997 14.4128 55.15520000000001 -2.19904 78.9376a42.33984 42.33984 0 0 1 -10.8672 10.304 1.1955200000000001 1.1955200000000001 0 0 0 1.23392 2.04544Z" fill="#656464" stroke-width="1"></path><path d="M117.73952 264.07936c-7.36256 10.575360000000002 0.7193600000000001 29.695999999999998 -6.54592 42.598400000000005 -1.45664 2.59072 -2.75456 3.24864 -2.65984 4.55168a0.7372799999999999 0.7372799999999999 0 0 0 0.7168000000000001 0.7168000000000001c1.6896000000000002 0.1152 3.03872 -2.2528 3.78368 -3.47904a33.55392 33.55392 0 0 0 3.96544 -17.08032c0.12032 -9.728 -1.4848 -16.23808 1.84064 -26.84928 0.21760000000000002 -0.69376 -0.7219199999999999 -1.00096 -1.1008 -0.45824Z" fill="#656464" stroke-width="1"></path><path d="M109.19936 298.0864a0.6016 0.6016 0 0 0 -1.17504 0.1536c-0.08192 2.8416 -5.870080000000001 13.99296 -15.316479999999999 18.944000000000003a13.36832 13.36832 0 0 0 -3.072 1.5616 0.8448000000000001 0.8448000000000001 0 0 0 0.384 1.4054400000000002c2.3577600000000003 0.40704 5.2198400000000005 -1.88928 7.0067200000000005 -3.19488a33.95328 33.95328 0 0 0 10.1248 -11.6352 11.47136 11.47136 0 0 0 2.048 -7.23456Z" fill="#656464" stroke-width="1"></path><path d="M100.992 300.10624a0.63744 0.63744 0 0 0 -1.1008 -0.63744 94.55104 94.55104 0 0 1 -8.38656 10.380799999999999c-5.19168 5.10208 -8.28416 4.8076799999999995 -9.35936 6.34112a0.6118399999999999 0.6118399999999999 0 0 0 0.35840000000000005 0.89344c2.56 1.024 8.3456 -3.62752 10.33216 -5.57312a47.889920000000004 47.889920000000004 0 0 0 8.15616 -11.4048Z" fill="#656464" stroke-width="1"></path><path d="M89.43360000000001 305.42592c2.3040000000000003 -1.68704 5.2198400000000005 -3.7811200000000005 5.632000000000001 -6.80192a0.43008 0.43008 0 0 0 -0.7168000000000001 -0.4096 41.09568 41.09568 0 0 1 -6.59712 6.187519999999999c-4.8947199999999995 3.6249599999999997 -6.5920000000000005 3.904 -8.05376 5.44768a0.56576 0.56576 0 0 0 0.53504 0.94464 36.67456 36.67456 0 0 0 9.20064 -5.36832Z" fill="#656464" stroke-width="1"></path><path d="M219.53536 202.53184000000002a8.34048 8.34048 0 0 0 -3.0950400000000005 -5.52448c-8.01024 -5.84448 -11.0592 -15.54944 -13.143040000000001 -24.85504a97.4464 97.4464 0 0 1 -2.32704 -18.99776 1.13152 1.13152 0 0 0 -2.09664 -0.5632c-11.28192 20.224 -2.9696 30.766080000000002 -2.58048 51.21792000000001 0.14336000000000002 7.6288 -1.3184 9.8176 -1.0752 12.24704 0.056319999999999995 0.5632 0.45824 1.1955200000000001 1.12384 1.1264 1.1008 -0.1152 2.17344 -0.2304 3.27424 -0.33280000000000004 1.20832 -7.439360000000001 2.3244800000000003 -12.185599999999999 2.99264 -15.162880000000001a18.7136 18.7136 0 0 1 1.66144 -6.00832 0.74752 0.74752 0 0 1 1.3798400000000002 0.384c0.37888 2.7955200000000002 -1.7664 6.21568 -3.91168 20.608 -0.5273599999999999 3.5379199999999997 -1.20832 7.0784 -1.7638399999999999 10.611199999999998a1.14176 1.14176 0 0 0 1.09824 1.4336000000000002c1.2288 -0.064 2.45504 -0.1024 3.65824 -0.128 -4.2752 18.9056 -8.396799999999999 40.7168 1.024 56.15104a21.224960000000003 21.224960000000003 0 0 0 4.756480000000001 5.6780800000000005 7.53664 7.53664 0 0 0 6.23872 2.07104 1.14944 1.14944 0 0 0 0 -2.19904c-1.7919999999999998 -0.5760000000000001 -4.73344 -0.256 -9.02656 -7.49312 -9.39264 -15.823360000000001 -3.40736 -35.15392 -1.17504 -54.233599999999996q6.86592 -0.0384 13.73184 0.58624a1.13152 1.13152 0 0 0 1.12384 -1.12384c-0.05376 -1.20064 -0.1024 -2.4038399999999998 -0.17920000000000003 -3.63008a67.45344 67.45344 0 0 0 -1.6896000000000002 -21.862399999999997Z" fill="#656464" stroke-width="1"></path><path d="M230.04416 108.15232a71.22944000000001 71.22944000000001 0 0 0 -22.1952 -5.95968c-8.002559999999999 -1.22112 -16.08192 -2.01728 -24.13824 -2.65984 -15.70048 -1.24928 -31.93344 -2.8544 -47.43168 0.8704000000000001a73.69984000000001 73.69984000000001 0 0 0 -10.9184 3.70688c-1.8944 0.768 -5.2633600000000005 1.7152 -5.70368 3.73504 -0.63232 2.91584 -3.60704 3.8144 -3.16928 4.039680000000001 2.54208 1.30816 2.8160000000000003 4.6080000000000005 2.27584 7.28832a11.238399999999999 11.238399999999999 0 0 1 -2.17344 4.83072 12.735999999999999 12.735999999999999 0 0 1 -1.5616 1.6384c-0.256 0.17920000000000003 -0.9958400000000001 0.86016 -1.32864 0.8678400000000001a0.512 0.512 0 0 0 -0.256 0.9728c12.40576 6.69952 6.2336 19.54048 -0.0512 20.02176a12.35712 12.35712 0 0 1 -5.12 -1.4336000000000002c-4.97664 -1.95072 -4.84352 -1.96608 -5.14048 -1.89184a1.8559999999999999 1.8559999999999999 0 0 0 -2.91584 1.1520000000000001c-0.53248 2.3782400000000004 2.22208 3.91424 3.80928 5.061120000000001 5.465599999999999 3.95008 11.276800000000001 7.365119999999999 16.54528 11.558399999999999a0.41216 0.41216 0 0 0 0.2304 0.0768 0.53248 0.53248 0 0 0 0.6656000000000001 0.64 94.62272000000002 94.62272000000002 0 0 1 12.45184 -2.8160000000000003 64.17663999999999 64.17663999999999 0 0 1 12.32384 -0.7936c0.384 0.1536 0.78592 -0.30208 0.6656000000000001 -0.6630400000000001a30.62528 30.62528 0 0 1 -1.32864 -10.28096 0.5888 0.5888 0 0 0 -0.4096 -0.53504c-18.229760000000002 -5.5552 -12.692480000000002 -35.42272 28.33152 -34.304a29.931520000000003 29.931520000000003 0 0 1 12.8 2.78784c0.56064 0.28672000000000003 3.2896 1.63584 3.24864 2.19904a0.55552 0.55552 0 0 0 0.81664 0.4864 9.728 9.728 0 0 1 4.73088 -1.5616 0.55552 0.55552 0 0 0 0.2816 -1.024c-0.27904 -0.15616 -0.5632 -0.33280000000000004 -0.8448000000000001 -0.4864a12.68992 12.68992 0 0 1 11.046400000000002 -4.29568 0.54272 0.54272 0 0 0 0.384 -0.9216 13.40928 13.40928 0 0 1 -2.53184 -2.73408c8.41216 -3.73504 17.771520000000002 -1.1520000000000001 26.13248 1.43104 0.63232 0.17152 1.01888 -0.7270399999999999 0.47872000000000003 -1.00352Z" fill="#ee7602" stroke-width="1"></path><path d="M269.26848 129.37472c-13.381120000000001 -11.52 -21.504 -12.11648 -22.42304 -13.11744 -0.43520000000000003 -0.4608 -1.1520000000000001 0.2304 -0.7168000000000001 0.7168000000000001 4.096 4.39552 5.0892800000000005 10.6624 5.0892800000000005 16.46592a0.512 0.512 0 0 0 0.63744 0.4864 169.05728 169.05728 0 0 1 17.185280000000002 -3.7094400000000003 0.512 0.512 0 0 0 0.22784 -0.8422400000000001Z" fill="#ee7602" stroke-width="1"></path><path d="M108.71296000000001 140.44672a20.736 20.736 0 0 0 -7.49056 -2.17344c-0.6144 -0.07936 -1.0752 0.6144 -0.4608 0.91904 3.4816000000000003 1.73056 5.49632 1.33376 9.05216 4.57728a4.95104 4.95104 0 0 0 2.48064 1.6384c0.38144 0.056319999999999995 0.7398399999999999 -0.128 0.7398399999999999 -0.4864 0 -1.78944 -2.73664 -3.57632 -4.32128 -4.47488Z" fill="#656464" stroke-width="1"></path><path d="M79.488 108.84096a17.024 17.024 0 0 0 -1.2288 5.39648 72.11776 72.11776 0 0 0 -0.768 11.0208c0.02048 1.35424 -0.06912 3.1308800000000003 1.17504 3.98848a0.768 0.768 0 0 0 1.12384 -0.4608 4.7846400000000004 4.7846400000000004 0 0 0 0.0512 -2.048 120.20992000000001 120.20992000000001 0 0 1 0.5888 -12.19584 28.96384 28.96384 0 0 0 0.4864 -5.31968c-0.064 -0.6784 -1.024 -1.14944 -1.4284800000000002 -0.38144Z" fill="#656464" stroke-width="1"></path><path d="M90.2272 104.08448a0.58624 0.58624 0 0 0 0.512 -0.30463999999999997c0.7244799999999999 -1.8073599999999999 -2.19904 -2.6828800000000004 -3.50464 -2.53184a3.63776 3.63776 0 0 0 -3.26656 3.5276799999999997 0.5734400000000001 0.5734400000000001 0 0 0 1.12384 0.1536 2.69568 2.69568 0 0 1 2.65984 -1.99424c0.96768 0.11263999999999999 1.55392 1.25696 2.47552 1.14944Z" fill="#656464" stroke-width="1"></path><path d="M72.78848 100.55680000000001c-0.4864 0.33280000000000004 -0.20736000000000002 1.17248 0.40704 0.9984000000000001a2.32192 2.32192 0 0 1 2.8160000000000003 1.7638399999999999 0.9036799999999999 0.9036799999999999 0 0 0 1.7638399999999999 -0.2304 3.12576 3.12576 0 0 0 -4.98688 -2.53184Z" fill="#656464" stroke-width="1"></path><path d="M81.48224 134.31040000000002a29.373440000000002 29.373440000000002 0 0 0 10.2272 -8.38912 20.48 20.48 0 0 1 -0.2816 7.936000000000001c-0.31488 1.35168 -0.7142400000000001 3.3484800000000003 -2.09664 4.039680000000001 -1.7382400000000002 0.8704000000000001 -2.86976 -1.4284800000000002 -3.5020800000000003 -2.65984 -0.6707200000000001 -1.30048 -2.6112 -0.15104 -1.9686400000000002 1.1520000000000001 0.89088 1.81504 2.19904 3.86304 4.44928 4.039680000000001A4.66688 4.66688 0 0 0 92.67200000000001 137.472a19.9424 19.9424 0 0 0 0.35584000000000005 -14.497280000000002c-0.22527999999999998 -0.6912 -1.4080000000000001 -1.0495999999999999 -1.7638399999999999 -0.2304 -2.01216 4.6464 -6.54592 7.52384 -10.380799999999999 10.56 -0.44799999999999995 0.36863999999999997 0.0384 1.216 0.59904 1.00608Z" fill="#656464" stroke-width="1"></path><path d="M85.95712 115.69408a1.7740799999999999 1.7740799999999999 0 0 0 3.0156799999999997 -0.8704000000000001c0.43008 -1.7919999999999998 -1.536 -3.05152 -2.56 -2.40128a2.16576 2.16576 0 0 0 -0.45568 3.27168Z" fill="#656464" stroke-width="1"></path><path d="M74.06591999999999 115.41248a1.536 1.536 0 0 0 1.5078399999999998 -1.12384 2.14528 2.14528 0 0 0 -0.68864 -2.048 1.1776 1.1776 0 0 0 -1.6640000000000001 0c-1.4694399999999999 1.81504 -0.41472000000000003 3.52256 0.8448000000000001 3.1718400000000004Z" fill="#656464" stroke-width="1"></path><path d="M122.624 91.09504000000001c-1.00352 -2.51904 -5.05344 -1.10848 -6.82752 1.3824 -0.43520000000000003 0.6118399999999999 -0.5632 1.3798400000000002 -0.94464 1.99424 0.05376 0.768 -0.41984000000000005 0.15872 -2.58304 0.43520000000000003a10.86464 10.86464 0 0 0 -1.2544 0.20224 5.10208 5.10208 0 0 0 0.9984000000000001 -3.19488 8.3072 8.3072 0 0 0 6.520320000000001 -2.19904 3.3280000000000003 3.3280000000000003 0 0 0 -2.048 -5.75232 2.91328 2.91328 0 0 0 -2.048 -2.45504 5.972480000000001 5.972480000000001 0 0 0 -3.01824 -1.7664 3.8016000000000005 3.8016000000000005 0 0 0 -3.29728 -1.25184c-0.6144 0.05376 -0.6681600000000001 0.10496000000000001 -1.1776 -0.2304a7.3984000000000005 7.3984000000000005 0 0 0 -5.57312 -2.2502400000000002c0.32256 -2.47296 -3.7119999999999997 -3.29216 -6.01088 -1.5078399999999998a8.22272 8.22272 0 0 0 -9.6128 -0.7424c-1.7740799999999999 1.14176 -1.3414400000000002 1.81504 -3.73504 1.7919999999999998a7.23456 7.23456 0 0 0 -7.08096 5.72928 5.83936 5.83936 0 0 0 -4.83328 9.12896 0.98304 0.98304 0 0 0 1.12384 0.43264 5.72416 5.72416 0 0 0 4.91008 -0.40704c3.4355200000000004 -1.536 3.34592 -2.59072 3.80928 -3.45344a20.06016 20.06016 0 0 0 2.9670400000000003 0.256 7.439360000000001 7.439360000000001 0 0 0 6.34112 -5.376 11.9808 11.9808 0 0 0 2.27584 0.6144 8.4608 8.4608 0 0 0 -1.9686400000000002 3.68384c-3.37408 0 -7.167999999999999 3.0156799999999997 -6.622720000000001 6.5715200000000005a4.04224 4.04224 0 0 0 6.44864 3.5251200000000003 8.3072 8.3072 0 0 0 3.24864 -4.19328 4.97152 4.97152 0 0 0 6.00832 -1.94304c0.8396800000000001 -1.41568 1.024 -0.512 3.75808 -0.512a7.80288 7.80288 0 0 0 -3.19488 2.78784 5.9187199999999995 5.9187199999999995 0 0 0 -6.49472 4.32128c-1.28 3.86304 4.4134400000000005 7.0067200000000005 8.41216 1.22624 0.512 -0.7398399999999999 0.7168000000000001 -1.3363200000000002 1.68704 -1.024a9.216000000000001 9.216000000000001 0 0 0 4.24448 0.45824 5.76768 5.76768 0 0 0 -1.32352 2.61632c-2.8390400000000002 -0.35840000000000005 -6.27712 -0.19968 -7.23712 3.0438400000000003a0.5785600000000001 0.5785600000000001 0 0 0 0.17920000000000003 0.6144c-0.0256 0.128 -0.05376 0.22784 -0.0768 0.35584000000000005a3.5839999999999996 3.5839999999999996 0 0 0 2.45504 3.96544c3.86816 1.31072 5.931520000000001 -2.14784 6.98112 -5.31968a7.0067200000000005 7.0067200000000005 0 0 0 3.68128 1.28 4.41856 4.41856 0 0 0 -0.9728 1.4591999999999998 4.060160000000001 4.060160000000001 0 0 0 0.3072 5.376 2.83392 2.83392 0 0 0 -2.53184 2.07104c-0.1536 0.5376 0.61696 1.05216 0.9984000000000001 0.5888 2.28352 -2.7648 6.110720000000001 1.5667200000000001 4.27008 6.34112 -1.05728 2.74432 -4.07552 4.776960000000001 -6.59712 3.47904 -0.8755200000000001 -0.45055999999999996 -1.15456 -1.28 -1.86624 -1.86624a0.9472 0.9472 0 0 0 -1.58464 0.6630400000000001c-0.29184000000000004 2.9183999999999997 4.039680000000001 4.24448 6.23872 3.84a8.22272 8.22272 0 0 0 6.144 -6.08512 7.5520000000000005 7.5520000000000005 0 0 0 -2.35264 -8.28416 6.07488 6.07488 0 0 0 3.98848 -5.90592 4.82816 4.82816 0 0 0 3.53024 -5.934080000000001 3.5839999999999996 3.5839999999999996 0 0 0 1.09824 -4.352 6.2592 6.2592 0 0 0 0.2432 -4.22912Zm-14.141440000000001 -1.89184A7.936000000000001 7.936000000000001 0 0 0 105.21600000000001 88.83200000000001a6.054400000000001 6.054400000000001 0 0 0 2.45504 -2.73408 4.23424 4.23424 0 0 0 3.84 -1.0752 3.5148800000000002 3.5148800000000002 0 0 0 0.8704000000000001 0.8704000000000001c0.0256 0.0256 0.0512 0.0256 0.0768 0.0512a5.74464 5.74464 0 0 0 -3.97568 3.25888Z" fill="#656464" stroke-width="1"></path><path d="M101.0176 132.21376c-1.80992 3.50976 -3.3100799999999997 9.37472 -8.38656 12.50304a11.56352 11.56352 0 0 1 -13.347840000000001 -1.66144c-9.00864 -7.4368 -10.255360000000001 -27.584000000000003 -9.180159999999999 -39.40352 0.56064 -6.169600000000001 1.14432 -7.874560000000001 1.07264 -10.02496a0.58624 0.58624 0 0 0 -1.14944 -0.1536 42.688 42.688 0 0 0 -1.7382400000000002 9.64096c-1.536 12.482560000000001 0.03328 34.10176 10.048 41.85856 8.72192 6.75328 19.842560000000002 3.4432 24.291840000000004 -12.0704 0.28416 -0.9472 -1.14944 -1.5744 -1.6102400000000001 -0.68864Z" fill="#656464" stroke-width="1"></path><path d="M357.40928 437.70112a29.921280000000003 29.921280000000003 0 0 0 -2.8160000000000003 -1.2032 0.42752 0.42752 0 0 0 -0.2816 -0.2304c-84.81024 -23.85152 -181.99808000000002 -60.31616 -263.98720000000003 -98.1888 -0.256 -0.11776 -52.08064 -24.09216 -52.520959999999995 -24.18944a26.2656 26.2656 0 0 0 -5.12 0c-20.00896 -0.0768 -19.89376 -0.81408 -19.89376 0.256a0.3968 0.3968 0 0 0 0.2304 0.384c16.82432 7.90016 33.00352 17.01632 49.835519999999995 24.90368 80.25088 37.61152 161.86624 70.81984 252.81279999999998 96.91136 12.39552 3.55584 10.18368 3.21792 16.161279999999998 2.9670400000000003 5.72672 -0.24064 22.632959999999997 -0.81664 25.36448 -0.9728 0.34304 -0.017920000000000002 0.5222399999999999 -0.48384 0.21504 -0.63744Z" fill="#ee7602" stroke-width="1"></path></svg>